<svg id="svg" version="1.1" xmlns="http://www.w3.org/2000/svg" xmlns:xlink="http://www.w3.org/1999/xlink" width="400" height="400" viewBox="0, 0, 400,400"><g id="svgg"><path id="path0" d="M195.900 0.265 C 195.295 0.368,194.800 0.621,194.800 0.827 C 194.800 1.032,194.390 1.200,193.888 1.200 C 193.387 1.200,192.717 1.560,192.400 2.000 C 192.083 2.440,191.503 2.800,191.112 2.800 C 190.720 2.800,190.400 2.980,190.400 3.200 C 190.400 3.420,190.040 3.600,189.600 3.600 C 189.160 3.600,188.800 3.780,188.800 4.000 C 188.800 4.220,188.440 4.400,188.000 4.400 C 187.560 4.400,187.200 4.580,187.200 4.800 C 187.200 5.022,186.133 5.200,184.800 5.200 C 183.467 5.200,182.400 5.022,182.400 4.800 C 182.400 4.580,182.040 4.400,181.600 4.400 C 181.160 4.400,180.800 4.220,180.800 4.000 C 180.800 3.780,180.440 3.600,180.000 3.600 C 179.560 3.600,179.200 3.420,179.200 3.200 C 179.200 2.980,178.660 2.800,178.000 2.800 C 177.340 2.800,176.800 2.620,176.800 2.400 C 176.800 2.161,175.267 2.000,173.000 2.000 C 170.733 2.000,169.200 2.161,169.200 2.400 C 169.200 2.620,168.840 2.800,168.400 2.800 C 167.960 2.800,167.600 2.980,167.600 3.200 C 167.600 3.420,167.306 3.600,166.947 3.600 C 166.305 3.600,164.800 5.025,164.800 5.633 C 164.800 5.803,164.550 6.193,164.245 6.498 C 163.402 7.341,162.000 10.434,162.000 11.452 C 162.000 11.947,161.820 12.464,161.600 12.600 C 161.373 12.740,161.200 14.730,161.200 17.200 C 161.200 19.670,161.373 21.660,161.600 21.800 C 161.820 21.936,162.000 22.937,162.000 24.024 C 162.000 25.111,162.180 26.000,162.400 26.000 C 162.620 26.000,162.800 26.392,162.800 26.872 C 162.800 27.792,163.460 30.128,164.049 31.295 C 164.242 31.677,164.400 32.262,164.400 32.595 C 164.400 32.928,164.580 33.200,164.800 33.200 C 165.020 33.200,165.200 33.740,165.200 34.400 C 165.200 35.060,165.380 35.600,165.600 35.600 C 165.820 35.600,166.000 35.960,166.000 36.400 C 166.000 36.840,166.180 37.200,166.400 37.200 C 166.620 37.200,166.800 37.549,166.800 37.976 C 166.800 38.403,166.980 38.864,167.200 39.000 C 167.420 39.136,167.600 39.597,167.600 40.024 C 167.600 40.451,167.780 40.800,168.000 40.800 C 168.220 40.800,168.400 41.160,168.400 41.600 C 168.400 42.040,168.580 42.400,168.800 42.400 C 169.020 42.400,169.200 42.760,169.200 43.200 C 169.200 43.640,169.380 44.000,169.600 44.000 C 169.820 44.000,170.000 44.360,170.000 44.800 C 170.000 45.240,170.180 45.600,170.400 45.600 C 170.620 45.600,170.800 45.878,170.800 46.217 C 170.800 46.556,171.160 47.220,171.600 47.692 C 172.040 48.164,172.400 48.787,172.400 49.075 C 172.400 49.364,172.580 49.600,172.800 49.600 C 173.020 49.600,173.200 49.960,173.200 50.400 C 173.200 50.840,173.380 51.200,173.600 51.200 C 173.820 51.200,174.000 51.545,174.000 51.967 C 174.000 52.388,174.157 52.793,174.349 52.867 C 174.649 52.981,175.286 54.067,177.395 58.054 C 177.612 58.464,177.927 58.800,178.095 58.800 C 178.777 58.800,178.343 60.322,177.605 60.515 C 177.025 60.666,176.149 60.085,174.360 58.361 C 173.012 57.063,171.699 56.000,171.443 56.000 C 171.186 56.000,170.717 55.640,170.400 55.200 C 170.083 54.760,169.503 54.400,169.112 54.400 C 168.720 54.400,168.400 54.254,168.400 54.075 C 168.400 53.896,167.770 53.502,167.000 53.200 C 166.230 52.898,165.600 52.504,165.600 52.325 C 165.600 52.146,165.150 52.000,164.600 52.000 C 164.050 52.000,163.600 51.820,163.600 51.600 C 163.600 51.380,163.240 51.200,162.800 51.200 C 162.360 51.200,162.000 51.020,162.000 50.800 C 162.000 50.580,161.460 50.400,160.800 50.400 C 160.140 50.400,159.600 50.220,159.600 50.000 C 159.600 49.780,158.981 49.600,158.224 49.600 C 157.467 49.600,156.736 49.420,156.600 49.200 C 156.464 48.980,155.193 48.800,153.776 48.800 C 152.325 48.800,151.200 48.625,151.200 48.400 C 151.200 48.165,149.800 48.000,147.800 48.000 C 145.800 48.000,144.400 48.165,144.400 48.400 C 144.400 48.649,142.133 48.800,138.400 48.800 C 134.667 48.800,132.400 48.649,132.400 48.400 C 132.400 48.180,131.511 48.000,130.424 48.000 C 129.337 48.000,128.336 47.820,128.200 47.600 C 128.064 47.380,127.333 47.200,126.576 47.200 C 125.819 47.200,125.200 47.020,125.200 46.800 C 125.200 46.580,124.874 46.400,124.475 46.400 C 124.076 46.400,123.005 46.040,122.094 45.600 C 121.184 45.160,120.175 44.800,119.853 44.800 C 119.530 44.800,119.207 44.661,119.133 44.491 C 118.630 43.323,113.148 41.200,110.636 41.200 C 107.633 41.200,105.200 42.261,105.200 43.571 C 105.200 43.807,105.020 44.000,104.800 44.000 C 104.218 44.000,104.303 49.837,104.900 50.901 C 105.550 52.059,107.262 53.599,107.900 53.600 C 108.175 53.600,108.400 53.780,108.400 54.000 C 108.400 54.220,108.558 54.400,108.752 54.400 C 108.945 54.400,110.160 55.038,111.452 55.817 C 112.743 56.597,114.568 57.429,115.507 57.666 C 116.446 57.904,117.311 58.256,117.430 58.449 C 117.550 58.642,118.177 58.800,118.824 58.800 C 119.471 58.800,120.000 58.980,120.000 59.200 C 120.000 59.420,120.540 59.600,121.200 59.600 C 121.860 59.600,122.400 59.780,122.400 60.000 C 122.400 60.220,123.120 60.400,124.000 60.400 C 124.880 60.400,125.600 60.580,125.600 60.800 C 125.600 61.022,126.667 61.200,128.000 61.200 C 129.333 61.200,130.400 61.378,130.400 61.600 C 130.400 61.853,133.200 62.000,138.000 62.000 C 142.800 62.000,145.600 61.853,145.600 61.600 C 145.600 61.378,146.667 61.200,148.000 61.200 C 149.333 61.200,150.400 61.378,150.400 61.600 C 150.400 61.820,151.300 62.000,152.400 62.000 C 153.500 62.000,154.400 62.180,154.400 62.400 C 154.400 62.620,154.940 62.800,155.600 62.800 C 156.260 62.800,156.800 62.980,156.800 63.200 C 156.800 63.420,157.160 63.600,157.600 63.600 C 158.040 63.600,158.400 63.746,158.400 63.925 C 158.400 64.104,159.030 64.498,159.800 64.800 C 160.570 65.102,161.200 65.496,161.200 65.675 C 161.200 65.854,161.435 66.000,161.722 66.000 C 162.218 66.000,163.088 66.720,167.200 70.531 L 169.000 72.200 166.700 72.320 C 165.435 72.386,164.400 72.611,164.400 72.820 C 164.400 73.033,162.734 73.200,160.600 73.200 C 158.333 73.200,156.800 73.361,156.800 73.600 C 156.800 73.820,155.911 74.000,154.824 74.000 C 153.737 74.000,152.736 74.180,152.600 74.400 C 152.464 74.620,151.700 74.800,150.902 74.800 C 149.282 74.800,144.578 75.829,143.505 76.418 C 143.123 76.628,142.459 76.800,142.029 76.800 C 141.599 76.800,141.136 76.980,141.000 77.200 C 140.864 77.420,140.313 77.600,139.776 77.600 C 139.239 77.600,138.800 77.747,138.800 77.928 C 138.800 78.108,137.900 78.500,136.800 78.800 C 135.700 79.100,134.800 79.492,134.800 79.672 C 134.800 79.853,134.440 80.000,134.000 80.000 C 133.560 80.000,133.200 80.180,133.200 80.400 C 133.200 80.620,132.840 80.800,132.400 80.800 C 131.960 80.800,131.600 80.980,131.600 81.200 C 131.600 81.420,131.364 81.600,131.075 81.600 C 130.787 81.600,130.164 81.960,129.692 82.400 C 129.220 82.840,128.596 83.200,128.305 83.200 C 128.014 83.200,127.517 83.560,127.200 84.000 C 126.883 84.440,126.433 84.800,126.200 84.800 C 125.967 84.800,125.517 85.160,125.200 85.600 C 124.883 86.040,124.404 86.400,124.136 86.400 C 123.332 86.400,114.400 95.596,114.400 96.424 C 114.400 96.649,114.040 97.220,113.600 97.692 C 113.160 98.164,112.800 98.787,112.800 99.075 C 112.800 99.364,112.620 99.600,112.400 99.600 C 111.822 99.600,111.904 104.641,112.500 105.701 C 112.947 106.497,113.422 106.992,115.083 108.393 C 117.192 110.171,123.672 108.323,124.790 105.624 C 125.069 104.951,125.455 104.400,125.649 104.400 C 125.842 104.400,126.000 104.148,126.000 103.841 C 126.000 103.186,131.744 97.200,132.373 97.200 C 132.608 97.200,132.800 97.020,132.800 96.800 C 132.800 96.580,133.030 96.400,133.312 96.400 C 133.593 96.400,134.083 96.040,134.400 95.600 C 134.717 95.160,135.214 94.800,135.505 94.800 C 135.796 94.800,136.420 94.440,136.892 94.000 C 137.364 93.560,137.987 93.200,138.275 93.200 C 138.564 93.200,138.800 93.020,138.800 92.800 C 138.800 92.580,139.145 92.400,139.567 92.400 C 139.988 92.400,140.393 92.265,140.467 92.100 C 140.649 91.690,149.311 88.800,150.358 88.800 C 150.821 88.800,151.200 88.620,151.200 88.400 C 151.200 88.180,151.920 88.000,152.800 88.000 C 153.680 88.000,154.400 87.820,154.400 87.600 C 154.400 87.380,155.390 87.200,156.600 87.200 C 157.810 87.200,158.800 87.020,158.800 86.800 C 158.800 86.565,160.192 86.400,162.176 86.400 C 164.033 86.400,165.664 86.220,165.800 86.000 C 166.054 85.590,168.400 85.426,168.400 85.818 C 168.400 86.226,166.438 88.000,165.987 88.000 C 165.740 88.000,164.846 88.720,164.000 89.600 C 163.154 90.480,162.269 91.200,162.031 91.200 C 161.794 91.200,161.600 91.380,161.600 91.600 C 161.600 91.820,161.359 92.000,161.064 92.000 C 160.770 92.000,159.862 92.720,159.048 93.600 C 158.234 94.480,157.398 95.200,157.191 95.200 C 156.984 95.200,155.686 96.327,154.307 97.704 C 152.928 99.081,151.170 100.654,150.400 101.199 C 148.627 102.453,132.000 119.079,132.000 119.597 C 132.000 119.809,131.055 120.937,129.900 122.103 C 128.745 123.269,127.086 125.118,126.214 126.212 C 125.342 127.305,124.307 128.491,123.914 128.847 C 123.521 129.203,123.200 129.660,123.200 129.863 C 123.200 130.066,122.480 131.028,121.600 132.000 C 120.720 132.972,120.000 133.928,120.000 134.124 C 120.000 134.319,119.460 134.983,118.800 135.600 C 118.140 136.217,117.600 136.937,117.600 137.200 C 117.600 137.463,117.060 138.183,116.400 138.800 C 115.740 139.417,115.200 140.169,115.200 140.472 C 115.200 140.775,114.840 141.283,114.400 141.600 C 113.960 141.917,113.600 142.407,113.600 142.688 C 113.600 142.970,113.450 143.200,113.268 143.200 C 113.085 143.200,112.680 143.695,112.368 144.300 C 112.055 144.905,111.485 145.749,111.100 146.175 C 110.715 146.602,110.400 147.187,110.400 147.475 C 110.400 147.764,110.247 148.000,110.061 148.000 C 109.874 148.000,109.397 148.720,109.000 149.600 C 108.603 150.480,108.126 151.200,107.939 151.200 C 107.753 151.200,107.600 151.560,107.600 152.000 C 107.600 152.440,107.420 152.800,107.200 152.800 C 106.980 152.800,106.800 153.120,106.800 153.512 C 106.800 153.903,106.440 154.483,106.000 154.800 C 105.560 155.117,105.200 155.697,105.200 156.088 C 105.200 156.480,105.020 156.800,104.800 156.800 C 104.580 156.800,104.400 157.160,104.400 157.600 C 104.400 158.040,104.220 158.400,104.000 158.400 C 103.780 158.400,103.600 158.670,103.600 159.000 C 103.600 159.330,103.420 159.600,103.200 159.600 C 102.980 159.600,102.800 159.870,102.800 160.200 C 102.800 160.530,102.654 160.800,102.475 160.800 C 102.296 160.800,101.902 161.430,101.600 162.200 C 101.298 162.970,100.904 163.600,100.725 163.600 C 100.546 163.600,100.400 163.960,100.400 164.400 C 100.400 164.840,100.220 165.200,100.000 165.200 C 99.780 165.200,99.600 165.560,99.600 166.000 C 99.600 166.440,99.420 166.800,99.200 166.800 C 98.980 166.800,98.800 167.160,98.800 167.600 C 98.800 168.040,98.620 168.400,98.400 168.400 C 98.180 168.400,98.000 168.665,98.000 168.988 C 98.000 169.311,97.640 170.217,97.200 171.000 C 96.760 171.783,96.400 172.779,96.400 173.212 C 96.400 173.645,96.220 174.000,96.000 174.000 C 95.780 174.000,95.600 174.360,95.600 174.800 C 95.600 175.240,95.420 175.600,95.200 175.600 C 94.980 175.600,94.800 175.872,94.800 176.205 C 94.800 176.538,94.635 177.123,94.434 177.505 C 93.251 179.747,92.111 182.968,91.320 186.300 C 91.203 186.795,90.948 187.200,90.753 187.200 C 90.559 187.200,90.400 187.819,90.400 188.576 C 90.400 189.333,90.220 190.064,90.000 190.200 C 89.780 190.336,89.600 190.876,89.600 191.400 C 89.600 191.924,89.420 192.464,89.200 192.600 C 88.980 192.736,88.800 193.287,88.800 193.824 C 88.800 194.361,88.620 194.800,88.400 194.800 C 88.180 194.800,88.000 195.419,88.000 196.176 C 88.000 196.933,87.820 197.664,87.600 197.800 C 87.380 197.936,87.200 198.667,87.200 199.424 C 87.200 200.181,87.020 200.800,86.800 200.800 C 86.580 200.800,86.400 201.610,86.400 202.600 C 86.400 203.590,86.220 204.400,86.000 204.400 C 85.780 204.400,85.600 205.300,85.600 206.400 C 85.600 207.500,85.420 208.400,85.200 208.400 C 84.980 208.400,84.800 209.289,84.800 210.376 C 84.800 211.463,84.620 212.464,84.400 212.600 C 84.180 212.736,84.000 214.097,84.000 215.624 C 84.000 217.208,83.828 218.400,83.600 218.400 C 83.351 218.400,83.200 220.659,83.200 224.376 C 83.200 227.929,83.038 230.453,82.800 230.600 C 82.279 230.922,82.279 236.278,82.800 236.600 C 83.020 236.736,83.200 238.123,83.200 239.682 L 83.200 242.516 77.700 242.249 C 74.675 242.102,71.165 241.872,69.900 241.739 L 67.600 241.497 67.600 237.748 C 67.600 235.516,67.438 234.000,67.200 234.000 C 66.980 234.000,66.800 233.460,66.800 232.800 C 66.800 232.140,66.620 231.600,66.400 231.600 C 66.180 231.600,66.000 231.240,66.000 230.800 C 66.000 230.360,65.820 230.000,65.600 230.000 C 65.380 230.000,65.200 229.752,65.200 229.448 C 65.200 228.467,60.442 224.000,59.397 224.000 C 59.069 224.000,58.799 223.865,58.797 223.700 C 58.793 223.294,56.814 222.400,55.920 222.400 C 55.524 222.400,55.200 222.220,55.200 222.000 C 55.200 221.739,48.667 221.600,36.400 221.600 C 24.133 221.600,17.600 221.739,17.600 222.000 C 17.600 222.220,17.245 222.400,16.812 222.400 C 14.503 222.400,7.600 228.248,7.600 230.205 C 7.600 230.532,7.420 230.800,7.200 230.800 C 6.980 230.800,6.800 231.250,6.800 231.800 C 6.800 232.350,6.620 232.800,6.400 232.800 C 6.180 232.800,6.000 233.610,6.000 234.600 C 6.000 235.590,5.820 236.400,5.600 236.400 C 5.046 236.400,5.046 377.857,5.600 378.200 C 5.820 378.336,6.000 379.157,6.000 380.024 C 6.000 380.891,6.180 381.600,6.400 381.600 C 6.620 381.600,6.800 381.960,6.800 382.400 C 6.800 382.840,6.980 383.200,7.200 383.200 C 7.420 383.200,7.600 383.560,7.600 384.000 C 7.600 384.440,7.780 384.800,8.000 384.800 C 8.220 384.800,8.400 385.122,8.400 385.515 C 8.400 387.050,14.154 391.600,16.094 391.600 C 16.482 391.600,16.800 391.780,16.800 392.000 C 16.800 392.220,17.520 392.400,18.400 392.400 C 19.280 392.400,20.000 392.580,20.000 392.800 C 20.000 393.350,52.660 393.350,53.000 392.800 C 53.136 392.580,53.957 392.400,54.824 392.400 C 55.691 392.400,56.400 392.220,56.400 392.000 C 56.400 391.780,56.679 391.600,57.020 391.600 C 57.711 391.600,59.901 390.540,60.639 389.848 C 60.901 389.602,61.675 388.952,62.358 388.404 C 63.041 387.857,63.600 387.222,63.600 386.993 C 63.600 386.764,63.960 386.317,64.400 386.000 C 64.840 385.683,65.200 385.103,65.200 384.712 C 65.200 384.320,65.380 384.000,65.600 384.000 C 65.820 384.000,66.000 383.640,66.000 383.200 C 66.000 382.760,66.180 382.400,66.400 382.400 C 66.620 382.400,66.800 381.860,66.800 381.200 C 66.800 380.540,66.980 380.000,67.200 380.000 C 67.422 380.000,67.600 378.933,67.600 377.600 L 67.600 375.200 68.800 375.200 C 69.460 375.200,70.000 375.380,70.000 375.600 C 70.000 375.820,70.360 376.000,70.800 376.000 C 71.240 376.000,71.600 376.180,71.600 376.400 C 71.600 376.620,72.140 376.800,72.800 376.800 C 73.460 376.800,74.000 376.980,74.000 377.200 C 74.000 377.420,74.450 377.600,75.000 377.600 C 75.550 377.600,76.000 377.780,76.000 378.000 C 76.000 378.220,76.439 378.400,76.976 378.400 C 77.513 378.400,78.064 378.580,78.200 378.800 C 78.336 379.020,78.797 379.200,79.224 379.200 C 79.651 379.200,80.000 379.380,80.000 379.600 C 80.000 379.820,80.540 380.000,81.200 380.000 C 81.860 380.000,82.400 380.180,82.400 380.400 C 82.400 380.620,82.940 380.800,83.600 380.800 C 84.260 380.800,84.800 380.980,84.800 381.200 C 84.800 381.420,85.160 381.600,85.600 381.600 C 86.040 381.600,86.400 381.780,86.400 382.000 C 86.400 382.220,86.940 382.400,87.600 382.400 C 88.260 382.400,88.800 382.580,88.800 382.800 C 88.800 383.020,89.340 383.200,90.000 383.200 C 90.660 383.200,91.200 383.380,91.200 383.600 C 91.200 383.820,91.560 384.000,92.000 384.000 C 92.440 384.000,92.800 384.180,92.800 384.400 C 92.800 384.620,93.239 384.800,93.776 384.800 C 94.313 384.800,94.864 384.980,95.000 385.200 C 95.136 385.420,95.687 385.600,96.224 385.600 C 96.761 385.600,97.200 385.780,97.200 386.000 C 97.200 386.220,97.549 386.400,97.976 386.400 C 98.403 386.400,98.864 386.580,99.000 386.800 C 99.136 387.020,99.687 387.200,100.224 387.200 C 100.761 387.200,101.200 387.380,101.200 387.600 C 101.200 387.820,101.740 388.000,102.400 388.000 C 103.060 388.000,103.600 388.141,103.600 388.313 C 103.600 388.485,104.455 388.875,105.500 389.180 C 106.545 389.485,107.670 389.871,108.000 390.037 C 109.345 390.716,112.066 391.600,112.808 391.600 C 113.244 391.600,113.600 391.780,113.600 392.000 C 113.600 392.220,114.140 392.400,114.800 392.400 C 115.460 392.400,116.000 392.580,116.000 392.800 C 116.000 393.020,116.540 393.200,117.200 393.200 C 117.860 393.200,118.400 393.380,118.400 393.600 C 118.400 393.820,118.760 394.000,119.200 394.000 C 119.640 394.000,120.000 394.180,120.000 394.400 C 120.000 394.620,120.540 394.800,121.200 394.800 C 121.860 394.800,122.400 394.980,122.400 395.200 C 122.400 395.420,122.940 395.600,123.600 395.600 C 124.260 395.600,124.800 395.780,124.800 396.000 C 124.800 396.220,125.160 396.400,125.600 396.400 C 126.040 396.400,126.400 396.580,126.400 396.800 C 126.400 397.020,126.929 397.200,127.576 397.200 C 128.223 397.200,128.864 397.380,129.000 397.600 C 129.136 397.820,129.777 398.000,130.424 398.000 C 131.071 398.000,131.600 398.180,131.600 398.400 C 131.600 398.620,132.305 398.800,133.167 398.800 C 134.064 398.800,134.804 399.013,134.900 399.300 C 135.145 400.035,252.455 400.035,252.700 399.300 C 252.796 399.013,253.536 398.800,254.433 398.800 C 255.295 398.800,256.000 398.620,256.000 398.400 C 256.000 398.180,256.630 398.000,257.400 398.000 C 258.170 398.000,258.800 397.820,258.800 397.600 C 258.800 397.380,259.340 397.200,260.000 397.200 C 260.660 397.200,261.200 397.020,261.200 396.800 C 261.200 396.580,261.740 396.400,262.400 396.400 C 263.060 396.400,263.600 396.220,263.600 396.000 C 263.600 395.780,263.960 395.600,264.400 395.600 C 264.840 395.600,265.200 395.420,265.200 395.200 C 265.200 394.980,265.535 394.800,265.944 394.800 C 266.592 394.800,271.456 392.554,272.000 392.002 C 272.110 391.891,273.234 391.260,274.499 390.600 C 275.763 389.940,276.798 389.265,276.799 389.100 C 276.799 388.935,277.078 388.800,277.417 388.800 C 277.756 388.800,278.420 388.440,278.892 388.000 C 279.364 387.560,279.987 387.200,280.275 387.200 C 280.564 387.200,280.800 387.020,280.800 386.800 C 280.800 386.580,281.036 386.400,281.325 386.400 C 281.613 386.400,282.236 386.040,282.708 385.600 C 283.180 385.160,283.804 384.800,284.095 384.800 C 284.386 384.800,284.883 384.440,285.200 384.000 C 285.517 383.560,286.097 383.200,286.488 383.200 C 286.880 383.200,287.200 383.020,287.200 382.800 C 287.200 382.580,287.470 382.400,287.800 382.400 C 288.130 382.400,288.400 382.220,288.400 382.000 C 288.400 381.780,288.670 381.600,289.000 381.600 C 289.330 381.600,289.600 381.420,289.600 381.200 C 289.600 380.980,289.830 380.800,290.112 380.800 C 290.393 380.800,290.883 380.440,291.200 380.000 C 291.517 379.560,292.057 379.200,292.400 379.200 C 292.743 379.200,293.283 378.840,293.600 378.400 C 293.917 377.960,294.497 377.600,294.888 377.600 C 295.280 377.600,295.600 377.420,295.600 377.200 C 295.600 376.980,295.920 376.800,296.312 376.800 C 296.703 376.800,297.283 376.440,297.600 376.000 C 297.917 375.560,298.475 375.200,298.839 375.200 C 299.204 375.200,299.726 374.930,300.000 374.600 C 300.274 374.270,300.664 374.000,300.867 374.000 C 301.070 374.000,302.570 373.100,304.200 372.000 C 305.830 370.900,307.312 370.000,307.494 370.000 C 307.675 370.000,308.083 369.640,308.400 369.200 C 308.717 368.760,309.297 368.400,309.688 368.400 C 310.080 368.400,310.400 368.220,310.400 368.000 C 310.400 367.780,310.636 367.600,310.925 367.600 C 311.213 367.600,311.836 367.240,312.308 366.800 C 312.780 366.360,313.404 366.000,313.695 366.000 C 313.986 366.000,314.483 365.640,314.800 365.200 C 315.117 364.760,315.657 364.400,316.000 364.400 C 316.343 364.400,316.883 364.040,317.200 363.600 C 317.517 363.160,318.097 362.800,318.488 362.800 C 318.880 362.800,319.200 362.620,319.200 362.400 C 319.200 362.180,319.470 362.000,319.800 362.000 C 320.130 362.000,320.400 361.820,320.400 361.600 C 320.400 361.380,320.670 361.200,321.000 361.200 C 321.330 361.200,321.600 361.020,321.600 360.800 C 321.600 360.580,321.836 360.400,322.125 360.400 C 322.413 360.400,323.036 360.040,323.508 359.600 C 323.980 359.160,324.554 358.800,324.783 358.800 C 325.012 358.800,325.200 358.634,325.200 358.432 C 325.200 358.229,325.740 357.945,326.400 357.800 C 327.060 357.655,327.600 357.393,327.600 357.217 C 327.600 357.041,328.140 356.673,328.800 356.400 C 329.460 356.127,330.000 355.745,330.000 355.551 C 330.000 355.358,330.236 355.200,330.525 355.200 C 330.813 355.200,331.436 354.840,331.908 354.400 C 332.380 353.960,332.962 353.600,333.200 353.600 C 333.438 353.600,334.020 353.240,334.492 352.800 C 334.964 352.360,335.587 352.000,335.875 352.000 C 336.164 352.000,336.400 351.820,336.400 351.600 C 336.400 351.380,336.636 351.200,336.925 351.200 C 337.213 351.200,337.798 350.885,338.225 350.500 C 338.651 350.115,339.495 349.545,340.100 349.232 C 340.705 348.920,341.200 348.515,341.200 348.332 C 341.200 348.150,341.470 348.000,341.800 348.000 C 342.130 348.000,342.400 347.820,342.400 347.600 C 342.400 347.380,342.636 347.200,342.925 347.200 C 343.213 347.200,343.836 346.840,344.308 346.400 C 344.780 345.960,345.404 345.600,345.695 345.600 C 345.986 345.600,346.483 345.240,346.800 344.800 C 347.117 344.360,347.614 344.000,347.905 344.000 C 348.196 344.000,348.820 343.640,349.292 343.200 C 349.764 342.760,350.387 342.400,350.675 342.400 C 350.964 342.400,351.200 342.220,351.200 342.000 C 351.200 341.780,351.472 341.600,351.804 341.600 C 352.136 341.600,353.305 340.970,354.400 340.200 C 355.495 339.430,356.491 338.800,356.613 338.800 C 356.734 338.800,357.220 338.440,357.692 338.000 C 358.164 337.560,358.787 337.200,359.075 337.200 C 359.364 337.200,359.600 337.020,359.600 336.800 C 359.600 336.580,359.920 336.400,360.312 336.400 C 360.703 336.400,361.283 336.040,361.600 335.600 C 361.917 335.160,362.457 334.800,362.800 334.800 C 363.143 334.800,363.683 334.440,364.000 334.000 C 364.317 333.560,364.814 333.200,365.105 333.200 C 365.396 333.200,366.020 332.840,366.492 332.400 C 366.964 331.960,367.587 331.600,367.875 331.600 C 368.164 331.600,368.400 331.420,368.400 331.200 C 368.400 330.980,368.636 330.800,368.925 330.800 C 369.213 330.800,369.836 330.440,370.308 330.000 C 370.780 329.560,371.404 329.200,371.695 329.200 C 371.986 329.200,372.483 328.840,372.800 328.400 C 373.117 327.960,373.607 327.600,373.888 327.600 C 374.170 327.600,374.400 327.420,374.400 327.200 C 374.400 326.980,374.720 326.800,375.112 326.800 C 375.503 326.800,376.083 326.440,376.400 326.000 C 376.717 325.560,377.286 325.200,377.665 325.200 C 378.043 325.200,378.461 325.025,378.593 324.811 C 378.726 324.597,379.456 324.126,380.217 323.765 C 380.978 323.404,381.600 322.949,381.600 322.754 C 381.600 322.559,381.960 322.400,382.400 322.400 C 382.840 322.400,383.200 322.220,383.200 322.000 C 383.200 321.780,383.461 321.600,383.781 321.600 C 384.434 321.600,390.400 315.788,390.400 315.152 C 390.400 314.927,390.670 314.473,391.000 314.143 C 391.330 313.813,391.600 313.196,391.600 312.771 C 391.600 312.347,391.780 312.000,392.000 312.000 C 392.220 312.000,392.400 311.561,392.400 311.024 C 392.400 310.487,392.580 309.936,392.800 309.800 C 393.020 309.664,393.200 309.124,393.200 308.600 C 393.200 308.076,393.380 307.536,393.600 307.400 C 393.820 307.264,394.000 306.364,394.000 305.400 C 394.000 304.436,394.180 303.536,394.400 303.400 C 394.620 303.264,394.800 301.813,394.800 300.176 C 394.800 298.459,394.631 297.200,394.400 297.200 C 394.180 297.200,394.000 296.300,394.000 295.200 C 394.000 294.100,393.820 293.200,393.600 293.200 C 393.380 293.200,393.200 292.761,393.200 292.224 C 393.200 291.687,393.020 291.136,392.800 291.000 C 392.580 290.864,392.400 290.313,392.400 289.776 C 392.400 289.239,392.220 288.800,392.000 288.800 C 391.780 288.800,391.600 288.453,391.600 288.029 C 391.600 287.604,391.330 286.987,391.000 286.657 C 390.670 286.327,390.400 285.872,390.400 285.646 C 390.400 285.006,383.638 278.400,382.983 278.400 C 382.662 278.400,382.400 278.220,382.400 278.000 C 382.400 277.780,382.040 277.600,381.600 277.600 C 381.160 277.600,380.800 277.420,380.800 277.200 C 380.800 276.980,380.528 276.800,380.195 276.800 C 379.862 276.800,379.277 276.638,378.895 276.439 C 375.183 274.510,362.013 274.527,359.820 276.464 C 359.611 276.649,359.026 276.800,358.520 276.800 C 358.014 276.800,357.600 276.980,357.600 277.200 C 357.600 277.420,357.240 277.600,356.800 277.600 C 356.360 277.600,356.000 277.780,356.000 278.000 C 356.000 278.220,355.561 278.400,355.024 278.400 C 354.487 278.400,353.936 278.580,353.800 278.800 C 353.664 279.020,353.203 279.200,352.776 279.200 C 352.349 279.200,352.000 279.380,352.000 279.600 C 352.000 279.820,351.640 280.000,351.200 280.000 C 350.760 280.000,350.400 279.820,350.400 279.600 C 350.400 279.380,350.580 279.200,350.800 279.200 C 351.020 279.200,351.200 278.840,351.200 278.400 C 351.200 277.960,351.380 277.600,351.600 277.600 C 351.820 277.600,352.000 277.060,352.000 276.400 C 352.000 275.740,352.180 275.200,352.400 275.200 C 352.620 275.200,352.800 274.750,352.800 274.200 C 352.800 273.650,352.980 273.200,353.200 273.200 C 353.420 273.200,353.600 272.660,353.600 272.000 C 353.600 271.340,353.780 270.800,354.000 270.800 C 354.220 270.800,354.400 270.260,354.400 269.600 C 354.400 268.940,354.580 268.400,354.800 268.400 C 355.020 268.400,355.200 267.871,355.200 267.224 C 355.200 266.577,355.380 265.936,355.600 265.800 C 355.820 265.664,356.000 264.944,356.000 264.200 C 356.000 263.456,356.161 262.748,356.358 262.626 C 356.555 262.505,356.810 261.729,356.926 260.903 C 357.042 260.076,357.503 257.150,357.950 254.400 C 358.398 251.650,358.772 247.825,358.782 245.900 C 358.792 243.846,358.965 242.400,359.200 242.400 C 359.454 242.400,359.600 239.333,359.600 234.000 C 359.600 228.667,359.454 225.600,359.200 225.600 C 358.963 225.600,358.803 224.172,358.808 222.100 C 358.817 218.321,357.737 209.038,357.156 207.905 C 356.960 207.523,356.800 206.499,356.800 205.629 C 356.800 204.759,356.620 203.936,356.400 203.800 C 356.180 203.664,356.000 202.944,356.000 202.200 C 356.000 201.456,355.820 200.736,355.600 200.600 C 355.380 200.464,355.200 199.744,355.200 199.000 C 355.200 198.256,355.020 197.536,354.800 197.400 C 354.580 197.264,354.400 196.634,354.400 196.000 C 354.400 195.366,354.220 194.736,354.000 194.600 C 353.780 194.464,353.600 193.823,353.600 193.176 C 353.600 192.529,353.420 192.000,353.200 192.000 C 352.980 192.000,352.800 191.460,352.800 190.800 C 352.800 190.140,352.620 189.600,352.400 189.600 C 352.180 189.600,352.000 189.060,352.000 188.400 C 352.000 187.740,351.820 187.200,351.600 187.200 C 351.380 187.200,351.200 186.660,351.200 186.000 C 351.200 185.340,351.020 184.800,350.800 184.800 C 350.580 184.800,350.400 184.451,350.400 184.024 C 350.400 183.597,350.220 183.136,350.000 183.000 C 349.780 182.864,349.600 182.313,349.600 181.776 C 349.600 181.239,349.420 180.800,349.200 180.800 C 348.980 180.800,348.800 180.350,348.800 179.800 C 348.800 179.250,348.620 178.800,348.400 178.800 C 348.180 178.800,348.000 178.350,348.000 177.800 C 348.000 177.250,347.865 176.799,347.700 176.797 C 347.294 176.793,346.400 174.814,346.400 173.920 C 346.400 173.524,346.220 173.200,346.000 173.200 C 345.780 173.200,345.600 172.840,345.600 172.400 C 345.600 171.960,345.420 171.600,345.200 171.600 C 344.980 171.600,344.800 171.240,344.800 170.800 C 344.800 170.360,344.620 170.000,344.400 170.000 C 344.180 170.000,344.000 169.640,344.000 169.200 C 344.000 168.760,343.820 168.400,343.600 168.400 C 343.380 168.400,343.200 168.040,343.200 167.600 C 343.200 167.160,343.020 166.800,342.800 166.800 C 342.580 166.800,342.400 166.440,342.400 166.000 C 342.400 165.560,342.220 165.200,342.000 165.200 C 341.780 165.200,341.600 164.874,341.600 164.476 C 341.600 164.079,340.970 162.707,340.200 161.428 C 339.430 160.149,338.800 158.945,338.800 158.752 C 338.800 158.558,338.620 158.400,338.400 158.400 C 338.180 158.400,338.000 158.040,338.000 157.600 C 338.000 157.160,337.820 156.800,337.600 156.800 C 337.380 156.800,337.200 156.564,337.200 156.275 C 337.200 155.987,336.840 155.364,336.400 154.892 C 335.960 154.420,335.600 153.838,335.600 153.600 C 335.600 153.362,335.240 152.780,334.800 152.308 C 334.360 151.836,334.000 151.213,334.000 150.925 C 334.000 150.636,333.820 150.400,333.600 150.400 C 333.380 150.400,333.200 150.164,333.200 149.875 C 333.200 149.587,332.885 149.002,332.500 148.575 C 332.115 148.149,331.545 147.305,331.232 146.700 C 330.920 146.095,330.515 145.600,330.332 145.600 C 330.150 145.600,330.000 145.375,330.000 145.100 C 329.999 144.620,329.131 143.461,326.997 141.093 C 326.449 140.484,326.000 139.802,326.000 139.576 C 326.000 139.351,325.625 138.769,325.166 138.283 C 324.707 137.797,324.051 136.860,323.707 136.200 C 323.363 135.540,322.748 134.709,322.341 134.353 C 321.933 133.997,321.600 133.524,321.600 133.301 C 321.600 133.079,320.903 132.178,320.051 131.300 C 319.198 130.422,318.433 129.507,318.351 129.266 C 317.990 128.220,307.855 117.600,307.217 117.600 C 306.988 117.600,306.800 117.420,306.800 117.200 C 306.800 116.554,301.637 116.705,300.971 117.371 C 300.657 117.686,300.400 118.117,300.400 118.331 C 300.400 118.544,299.952 119.502,299.405 120.459 C 297.750 123.355,298.313 125.681,301.473 129.006 C 312.447 140.550,326.464 161.046,333.168 175.349 C 335.916 181.213,336.220 181.904,337.403 185.000 C 337.992 186.540,338.631 188.160,338.825 188.600 C 349.096 212.007,349.745 251.204,340.211 272.200 C 339.911 272.860,339.344 274.210,338.951 275.200 C 337.232 279.531,331.769 289.099,330.341 290.282 C 330.043 290.529,325.030 292.824,319.200 295.384 C 313.370 297.944,308.060 300.280,307.400 300.577 C 306.740 300.873,305.345 301.495,304.300 301.958 C 303.255 302.421,301.545 303.179,300.500 303.642 C 298.790 304.400,297.404 305.000,295.000 306.022 C 294.560 306.209,292.607 307.090,290.660 307.981 C 288.713 308.871,287.053 309.600,286.970 309.600 C 286.888 309.600,285.691 310.116,284.310 310.746 C 282.930 311.376,280.450 312.477,278.800 313.193 C 275.978 314.417,274.812 314.930,270.400 316.891 C 269.410 317.331,267.790 318.051,266.800 318.491 C 265.810 318.931,264.190 319.650,263.200 320.088 C 262.210 320.526,260.826 321.151,260.124 321.476 C 257.704 322.599,257.385 322.217,257.512 318.346 C 257.879 307.159,252.211 294.875,243.778 288.582 C 242.910 287.934,242.110 287.313,242.000 287.201 C 241.700 286.895,237.574 284.400,237.369 284.400 C 237.271 284.400,236.428 284.052,235.496 283.627 C 231.123 281.635,228.272 281.101,213.000 279.415 C 207.940 278.856,202.360 278.224,200.600 278.010 C 198.840 277.796,195.690 277.428,193.600 277.192 C 191.510 276.956,188.450 276.600,186.800 276.401 C 185.150 276.202,182.090 275.845,180.000 275.608 C 177.910 275.370,174.760 275.005,173.000 274.796 C 171.240 274.587,168.000 274.225,165.800 273.992 C 163.600 273.759,161.032 273.395,160.094 273.184 C 159.156 272.973,157.999 272.800,157.523 272.800 C 156.644 272.800,156.371 272.729,151.400 271.213 C 148.342 270.280,148.551 270.364,143.459 268.034 C 140.424 266.645,137.224 264.885,126.400 258.654 C 124.587 257.611,114.488 252.614,113.000 252.024 C 112.560 251.850,111.750 251.509,111.200 251.266 C 109.175 250.374,100.930 247.685,98.663 247.178 C 95.397 246.449,95.428 246.575,95.413 234.000 C 95.354 185.950,122.167 139.351,173.826 97.725 L 177.851 94.481 180.026 95.545 C 181.221 96.131,183.010 96.853,184.000 97.151 C 184.990 97.449,186.250 97.835,186.800 98.008 C 200.987 102.482,234.086 102.674,249.800 98.372 C 250.680 98.131,251.897 97.838,252.505 97.721 C 253.113 97.604,253.708 97.349,253.829 97.154 C 253.949 96.959,254.309 96.800,254.628 96.800 C 255.224 96.800,258.842 95.228,259.200 94.813 C 259.570 94.385,261.568 93.200,261.920 93.200 C 262.253 93.200,265.611 95.646,266.734 96.706 C 267.028 96.984,267.926 97.704,268.729 98.306 C 270.341 99.514,270.387 99.552,276.475 104.739 C 283.221 110.486,283.996 110.790,287.362 109.000 C 288.396 108.450,289.438 108.000,289.677 108.000 C 291.137 108.000,291.761 103.247,290.605 100.930 C 290.064 99.846,287.516 97.200,287.013 97.200 C 286.898 97.200,285.874 96.290,284.738 95.177 C 283.602 94.065,282.152 92.885,281.515 92.556 C 280.878 92.227,279.625 91.247,278.730 90.379 C 277.835 89.510,276.927 88.800,276.712 88.800 C 276.497 88.800,275.817 88.260,275.200 87.600 C 274.583 86.940,273.953 86.400,273.800 86.400 C 273.647 86.400,273.017 85.860,272.400 85.200 C 271.783 84.540,271.081 84.000,270.840 84.000 C 270.598 84.000,270.400 83.820,270.400 83.600 C 270.400 83.380,270.130 83.200,269.800 83.200 C 269.109 83.200,269.138 83.446,269.198 78.100 C 269.228 75.460,269.094 74.000,268.822 74.000 C 268.590 74.000,268.400 73.280,268.400 72.400 C 268.400 71.520,268.220 70.800,268.000 70.800 C 267.780 70.800,267.600 70.440,267.600 70.000 C 267.600 69.560,267.420 69.200,267.200 69.200 C 266.980 69.200,266.800 68.840,266.800 68.400 C 266.800 67.960,266.620 67.600,266.400 67.600 C 266.180 67.600,266.000 67.240,266.000 66.800 C 266.000 66.360,265.850 66.000,265.668 66.000 C 265.485 66.000,265.080 65.505,264.768 64.900 C 264.455 64.295,263.671 63.291,263.025 62.670 C 262.379 62.048,262.020 61.418,262.226 61.270 C 262.432 61.121,262.856 60.505,263.168 59.900 C 263.480 59.295,263.885 58.800,264.068 58.800 C 264.250 58.800,264.400 58.530,264.400 58.200 C 264.400 57.870,264.580 57.600,264.800 57.600 C 265.020 57.600,265.200 57.330,265.200 57.000 C 265.200 56.670,265.380 56.400,265.600 56.400 C 265.820 56.400,266.000 56.130,266.000 55.800 C 266.000 55.470,266.180 55.200,266.400 55.200 C 266.620 55.200,266.800 54.964,266.800 54.675 C 266.800 54.387,267.160 53.764,267.600 53.292 C 268.040 52.820,268.400 52.156,268.400 51.817 C 268.400 51.478,268.580 51.200,268.800 51.200 C 269.020 51.200,269.200 50.840,269.200 50.400 C 269.200 49.960,269.345 49.600,269.521 49.600 C 269.698 49.600,270.283 48.703,270.821 47.606 C 271.360 46.510,271.935 45.610,272.100 45.606 C 272.265 45.603,272.400 45.240,272.400 44.800 C 272.400 44.360,272.580 44.000,272.800 44.000 C 273.020 44.000,273.200 43.640,273.200 43.200 C 273.200 42.760,273.380 42.400,273.600 42.400 C 273.820 42.400,274.000 42.113,274.000 41.762 C 274.000 41.411,274.296 40.556,274.657 39.862 C 275.889 37.497,276.000 37.211,276.000 36.405 C 276.000 35.962,276.180 35.600,276.400 35.600 C 276.620 35.600,276.800 35.240,276.800 34.800 C 276.800 34.360,276.980 34.000,277.200 34.000 C 277.420 34.000,277.600 33.460,277.600 32.800 C 277.600 32.140,277.780 31.600,278.000 31.600 C 278.220 31.600,278.400 31.060,278.400 30.400 C 278.400 29.740,278.580 29.200,278.800 29.200 C 279.020 29.200,279.200 28.660,279.200 28.000 C 279.200 27.340,279.380 26.800,279.600 26.800 C 279.820 26.800,280.000 25.990,280.000 25.000 C 280.000 24.010,280.180 23.200,280.400 23.200 C 280.648 23.200,280.800 21.008,280.800 17.424 C 280.800 14.004,280.637 11.546,280.400 11.400 C 280.180 11.264,280.000 10.713,280.000 10.176 C 280.000 9.639,279.820 9.200,279.600 9.200 C 279.380 9.200,279.200 8.840,279.200 8.400 C 279.200 7.960,279.050 7.600,278.868 7.600 C 278.685 7.600,278.280 7.105,277.968 6.500 C 277.281 5.169,275.793 3.600,275.218 3.600 C 274.988 3.600,274.800 3.420,274.800 3.200 C 274.800 2.980,274.440 2.800,274.000 2.800 C 273.560 2.800,273.200 2.620,273.200 2.400 C 273.200 1.871,265.727 1.871,265.400 2.400 C 265.264 2.620,264.803 2.800,264.376 2.800 C 263.949 2.800,263.600 2.980,263.600 3.200 C 263.600 3.420,263.328 3.600,262.995 3.600 C 262.662 3.600,262.032 3.780,261.595 4.000 C 261.158 4.220,260.442 4.580,260.005 4.800 C 258.973 5.320,255.200 5.320,255.200 4.800 C 255.200 4.580,254.840 4.400,254.400 4.400 C 253.960 4.400,253.600 4.220,253.600 4.000 C 253.600 3.780,253.364 3.600,253.075 3.600 C 252.787 3.600,252.164 3.240,251.692 2.800 C 251.220 2.360,250.556 2.000,250.217 2.000 C 249.878 2.000,249.600 1.820,249.600 1.600 C 249.600 1.380,249.276 1.200,248.880 1.200 C 248.484 1.200,247.935 0.975,247.660 0.700 C 246.947 -0.013,231.853 -0.013,231.140 0.700 C 230.865 0.975,230.316 1.200,229.920 1.200 C 229.524 1.200,229.200 1.380,229.200 1.600 C 229.200 1.820,228.964 2.000,228.675 2.000 C 228.387 2.000,227.802 2.325,227.375 2.722 C 226.949 3.120,226.015 3.703,225.300 4.020 C 224.585 4.336,224.000 4.731,224.000 4.898 C 224.000 5.353,219.285 5.261,219.000 4.800 C 218.864 4.580,218.437 4.400,218.052 4.400 C 217.666 4.400,216.964 4.040,216.492 3.600 C 216.020 3.160,215.356 2.800,215.017 2.800 C 214.678 2.800,214.400 2.620,214.400 2.400 C 214.400 2.180,214.040 2.000,213.600 2.000 C 213.160 2.000,212.800 1.820,212.800 1.600 C 212.800 1.380,212.455 1.200,212.033 1.200 C 211.612 1.200,211.193 0.979,211.103 0.709 C 210.937 0.211,198.362 -0.157,195.900 0.265 M207.200 12.750 C 208.410 13.369,210.390 14.408,211.600 15.060 C 217.931 18.471,226.529 18.201,232.200 14.413 C 237.679 10.754,240.603 10.728,246.615 14.286 C 252.327 17.667,258.951 18.372,264.600 16.199 C 268.486 14.704,268.576 14.713,268.736 16.600 C 269.124 21.179,263.781 35.178,258.071 44.541 C 257.152 46.048,256.400 47.361,256.400 47.459 C 256.400 47.556,255.537 48.933,254.483 50.518 C 253.429 52.103,251.961 54.419,251.221 55.664 C 249.964 57.777,249.752 57.946,248.037 58.191 C 247.027 58.335,244.490 58.811,242.400 59.249 C 226.641 62.544,216.582 62.775,201.161 60.196 C 193.758 58.958,192.461 58.523,191.634 57.000 C 191.275 56.340,190.280 54.720,189.422 53.400 C 183.517 44.314,177.188 31.695,175.178 25.000 C 174.914 24.120,174.555 23.018,174.381 22.551 C 173.035 18.947,173.678 13.776,175.305 15.119 C 176.737 16.301,181.482 17.366,185.200 17.339 C 190.005 17.304,192.126 16.537,200.000 11.993 C 201.346 11.217,204.940 11.595,207.200 12.750 M194.915 70.571 C 199.095 71.476,200.712 71.733,208.916 72.796 C 212.947 73.318,225.076 73.316,229.084 72.793 C 237.739 71.661,239.268 71.424,242.600 70.700 C 251.073 68.858,253.458 69.414,255.681 73.750 C 258.615 79.473,255.605 85.390,249.000 86.882 C 228.622 91.486,209.378 91.486,189.000 86.882 C 181.773 85.249,178.898 78.208,183.113 72.466 C 185.399 69.353,187.630 68.994,194.915 70.571 M218.408 122.025 C 215.617 123.199,215.070 124.556,214.810 130.968 C 214.603 136.061,214.586 136.140,213.600 136.419 C 213.050 136.575,211.790 136.937,210.800 137.224 C 203.455 139.349,197.445 144.446,193.852 151.600 C 192.624 154.043,192.307 154.946,191.232 159.046 C 190.621 161.374,190.696 168.365,191.357 170.880 C 193.651 179.602,198.320 184.399,210.203 190.244 L 214.800 192.505 214.800 215.629 C 214.800 232.072,214.672 238.832,214.358 239.026 C 213.867 239.329,208.473 238.559,206.600 237.917 C 203.395 236.820,200.606 235.437,196.400 232.861 C 192.571 230.515,187.534 233.268,187.629 237.654 C 187.739 242.721,199.637 248.940,211.800 250.289 L 214.600 250.600 214.809 256.000 C 215.096 263.419,216.412 265.600,220.600 265.600 C 224.765 265.600,226.400 262.675,226.400 255.227 L 226.400 250.151 228.500 249.646 C 260.076 242.045,264.215 199.483,234.500 187.949 C 234.005 187.757,233.195 187.436,232.700 187.237 C 232.205 187.037,230.630 186.426,229.200 185.879 L 226.600 184.884 226.600 166.142 L 226.600 147.400 227.931 147.533 C 230.189 147.760,234.022 149.491,237.547 151.876 C 242.147 154.990,247.506 152.973,247.591 148.096 C 247.667 143.721,236.439 136.877,227.600 135.909 C 226.605 135.801,226.599 135.777,226.400 130.800 C 226.100 123.311,223.124 120.043,218.408 122.025 M214.800 163.800 C 214.800 172.490,214.704 179.600,214.587 179.600 C 213.497 179.600,206.432 175.171,204.920 173.540 C 201.679 170.045,201.168 162.636,203.775 156.941 C 205.559 153.044,211.495 148.002,214.300 148.000 C 214.692 148.000,214.800 151.426,214.800 163.800 M230.800 198.631 C 245.469 204.537,247.860 221.887,235.609 233.517 C 233.694 235.335,227.502 238.634,226.810 238.206 C 226.374 237.937,226.198 197.935,226.630 197.503 C 226.896 197.237,228.246 197.602,230.800 198.631 M52.431 234.466 C 55.217 236.031,55.200 235.906,55.200 254.773 C 55.200 273.247,55.209 273.327,57.576 275.319 C 59.882 277.259,63.770 276.567,65.690 273.876 C 66.557 272.660,66.609 272.164,66.800 263.400 L 67.000 254.200 72.200 254.291 C 79.586 254.420,87.039 255.452,93.800 257.284 C 97.007 258.153,105.010 260.885,105.380 261.238 C 105.589 261.437,106.022 261.600,106.341 261.600 C 107.101 261.600,117.493 266.726,122.600 269.620 C 144.805 282.204,148.433 283.383,173.600 286.197 C 178.550 286.751,184.130 287.386,186.000 287.608 C 187.870 287.830,191.020 288.194,193.000 288.417 C 199.617 289.163,209.746 290.323,213.900 290.812 C 222.891 291.869,224.345 292.063,226.200 292.446 C 234.664 294.196,241.550 300.186,244.802 308.625 C 245.946 311.593,246.528 325.020,245.540 325.646 C 245.243 325.834,231.074 325.991,214.053 325.994 L 183.106 326.000 181.553 327.553 C 179.351 329.755,179.277 332.822,181.369 335.106 L 182.738 336.600 217.898 336.706 L 253.058 336.813 258.629 334.389 C 261.693 333.055,264.740 331.721,265.400 331.424 C 267.394 330.527,270.516 329.152,272.000 328.516 C 272.770 328.187,274.165 327.576,275.100 327.158 C 276.035 326.741,277.565 326.059,278.500 325.642 C 279.435 325.224,280.830 324.613,281.600 324.284 C 283.078 323.651,286.189 322.280,288.200 321.376 C 288.860 321.079,292.460 319.501,296.200 317.870 C 302.558 315.096,304.592 314.199,308.600 312.401 C 309.480 312.006,310.830 311.413,311.600 311.084 C 312.957 310.503,314.657 309.754,318.400 308.091 C 319.390 307.651,321.010 306.931,322.000 306.492 C 322.990 306.052,327.400 304.120,331.800 302.197 C 339.712 298.741,341.492 297.959,345.000 296.400 C 349.208 294.530,350.678 293.882,352.000 293.316 C 353.352 292.737,354.661 292.158,358.700 290.349 C 364.081 287.940,366.150 287.400,370.000 287.400 C 377.259 287.400,382.183 292.655,382.183 300.400 C 382.183 306.632,380.654 308.770,372.585 313.825 C 369.513 315.749,365.703 318.196,364.118 319.262 C 362.533 320.328,361.130 321.200,361.000 321.200 C 360.870 321.200,359.430 322.100,357.800 323.200 C 356.170 324.300,354.730 325.200,354.601 325.200 C 354.472 325.200,354.149 325.385,353.883 325.611 C 353.617 325.837,350.790 327.663,347.600 329.669 C 340.805 333.942,334.956 337.665,329.436 341.230 C 327.256 342.638,325.137 343.972,324.728 344.195 C 323.876 344.658,315.281 350.111,309.486 353.865 C 307.334 355.259,305.399 356.400,305.186 356.400 C 304.974 356.400,304.799 356.535,304.797 356.700 C 304.795 356.865,304.390 357.197,303.897 357.437 C 302.918 357.913,294.888 362.992,288.703 367.046 C 286.560 368.451,284.714 369.600,284.600 369.600 C 284.486 369.600,282.640 370.740,280.497 372.134 C 278.354 373.528,275.016 375.695,273.080 376.950 C 266.867 380.978,258.905 384.868,254.400 386.077 C 251.634 386.820,249.764 387.263,247.600 387.689 C 246.122 387.979,228.923 388.175,195.200 388.286 C 145.046 388.451,143.189 388.413,137.600 387.123 C 134.778 386.472,130.889 385.290,128.200 384.266 C 127.320 383.931,123.360 382.463,119.400 381.004 C 109.326 377.292,107.909 376.766,107.000 376.400 C 106.560 376.223,105.120 375.683,103.800 375.200 C 102.480 374.717,101.040 374.177,100.600 374.000 C 100.160 373.823,98.720 373.283,97.400 372.800 C 96.080 372.317,94.595 371.760,94.100 371.561 C 93.605 371.362,92.795 371.038,92.300 370.840 C 91.805 370.643,90.770 370.264,90.000 370.000 C 89.230 369.736,88.240 369.375,87.800 369.199 C 86.874 368.828,85.244 368.225,75.400 364.613 C 71.440 363.160,67.930 361.823,67.600 361.642 C 67.077 361.355,66.974 357.143,66.800 328.757 C 66.575 292.065,66.839 294.865,63.441 293.220 C 61.321 292.194,59.761 292.183,58.122 293.182 C 55.193 294.968,55.423 291.523,55.200 336.913 L 55.000 377.662 53.506 379.031 L 52.012 380.400 36.592 380.400 C 22.941 380.400,21.056 380.324,20.165 379.741 C 17.861 378.230,18.000 382.916,18.000 306.982 L 18.000 237.123 18.837 235.948 C 20.415 233.731,20.898 233.668,36.546 233.633 C 50.543 233.601,50.928 233.621,52.431 234.466 " stroke="none" fill="#050505" fill-rule="evenodd"></path><path id="path1" d="M198.189 13.658 C 192.382 16.677,191.419 17.097,189.144 17.605 C 186.129 18.277,181.201 17.931,178.200 16.838 C 173.906 15.272,174.306 15.097,174.535 18.445 C 174.788 22.139,175.183 24.342,175.644 24.627 C 175.840 24.748,176.000 25.199,176.000 25.629 C 176.000 26.059,176.166 26.723,176.368 27.105 C 176.570 27.487,177.139 28.880,177.631 30.200 C 178.837 33.432,184.584 44.592,187.209 48.800 C 188.376 50.670,189.526 52.604,189.765 53.097 C 190.004 53.590,190.335 53.995,190.500 53.997 C 190.665 53.999,190.800 54.193,190.800 54.428 C 190.800 55.901,193.279 58.400,194.739 58.400 C 195.565 58.400,196.411 58.563,196.620 58.761 C 196.829 58.960,197.810 59.223,198.800 59.346 C 199.790 59.470,201.770 59.757,203.200 59.986 C 215.873 62.012,228.305 61.747,239.800 59.205 C 243.658 58.352,245.816 57.946,247.600 57.734 C 249.458 57.514,250.436 56.305,254.800 48.828 C 255.130 48.263,255.490 47.710,255.600 47.600 C 255.710 47.490,255.997 47.040,256.238 46.600 C 257.346 44.573,257.817 43.785,258.031 43.600 C 260.004 41.893,267.410 23.639,267.842 19.416 C 268.236 15.571,268.155 15.495,264.928 16.686 C 258.152 19.186,253.186 18.480,244.400 13.765 C 239.989 11.398,238.305 11.495,233.400 14.400 C 224.500 19.671,218.510 19.444,207.200 13.405 C 203.663 11.517,202.229 11.557,198.189 13.658 M185.841 70.609 C 180.730 73.275,180.522 82.648,185.517 85.142 C 187.112 85.938,188.882 86.420,193.600 87.344 C 203.592 89.300,208.295 89.745,219.000 89.745 C 228.258 89.745,231.635 89.507,238.800 88.351 C 253.520 85.975,256.000 84.528,256.000 78.314 C 256.000 70.830,252.555 68.976,242.800 71.209 C 236.014 72.762,229.094 73.399,219.000 73.399 C 208.846 73.399,201.603 72.726,195.200 71.189 C 189.667 69.860,187.532 69.728,185.841 70.609 M260.600 94.524 C 260.160 94.786,259.710 95.092,259.600 95.205 C 251.542 103.481,197.170 104.257,180.477 96.335 L 177.955 95.137 173.085 99.069 C 159.133 110.331,145.799 123.319,135.576 135.604 C 131.268 140.781,124.400 149.868,124.400 150.390 C 124.400 150.579,124.255 150.793,124.077 150.867 C 123.540 151.088,120.765 155.363,116.551 162.460 C 112.050 170.040,107.348 179.703,104.807 186.600 C 104.320 187.920,103.767 189.360,103.578 189.800 C 98.854 200.779,95.198 222.496,95.751 236.295 C 96.171 246.772,95.673 245.731,101.000 247.250 C 108.240 249.315,120.223 254.430,126.800 258.264 C 127.790 258.841,129.185 259.648,129.900 260.057 C 130.615 260.465,131.785 261.135,132.500 261.543 C 133.215 261.952,134.610 262.770,135.600 263.361 C 138.968 265.371,146.990 269.143,150.200 270.225 C 155.785 272.109,157.468 272.416,170.800 273.984 C 179.490 275.006,181.972 275.294,191.400 276.369 C 193.380 276.595,196.575 276.964,198.500 277.190 C 200.425 277.415,203.575 277.785,205.500 278.010 C 207.425 278.236,210.530 278.591,212.400 278.800 C 227.968 280.538,228.808 280.672,233.000 282.093 C 241.061 284.825,248.406 290.799,252.753 298.158 C 253.879 300.065,254.800 301.801,254.800 302.018 C 254.800 302.234,254.959 302.723,255.153 303.105 C 255.999 304.767,256.642 306.761,257.441 310.200 C 257.594 310.860,257.793 313.695,257.882 316.500 C 257.971 319.305,258.119 321.600,258.210 321.600 C 258.302 321.600,259.327 321.170,260.488 320.645 C 261.650 320.119,263.500 319.289,264.600 318.800 C 265.700 318.311,267.550 317.481,268.712 316.955 C 269.873 316.430,270.903 316.000,271.001 316.000 C 271.098 316.000,272.218 315.528,273.489 314.952 C 274.760 314.376,276.340 313.675,277.000 313.394 C 278.915 312.581,282.021 311.206,284.400 310.119 C 285.610 309.567,287.410 308.754,288.400 308.313 C 289.390 307.873,290.513 307.352,290.895 307.156 C 291.277 306.960,291.862 306.800,292.195 306.800 C 292.528 306.800,292.800 306.620,292.800 306.400 C 292.800 306.180,293.042 306.000,293.339 306.000 C 293.635 306.000,294.400 305.747,295.039 305.438 C 295.677 305.129,297.055 304.499,298.100 304.038 C 299.145 303.577,300.765 302.861,301.700 302.447 C 302.635 302.032,306.190 300.481,309.600 299.000 C 313.010 297.519,316.565 295.968,317.500 295.553 C 318.435 295.139,320.055 294.421,321.100 293.958 C 322.145 293.495,323.630 292.846,324.400 292.517 C 330.715 289.815,331.448 288.993,336.265 279.200 C 340.290 271.018,340.400 270.775,340.400 270.042 C 340.400 269.667,340.549 269.189,340.730 268.980 C 340.912 268.771,341.290 267.790,341.569 266.800 C 341.849 265.810,342.240 264.687,342.439 264.305 C 342.638 263.923,342.800 263.169,342.800 262.629 C 342.800 262.089,342.960 261.548,343.156 261.427 C 343.351 261.306,343.612 260.621,343.734 259.904 C 343.856 259.187,344.146 257.700,344.378 256.600 C 348.087 239.032,347.213 218.375,341.994 200.200 C 341.741 199.320,341.438 198.103,341.321 197.495 C 341.204 196.887,340.949 196.292,340.754 196.171 C 340.559 196.051,340.400 195.524,340.400 195.000 C 340.400 194.476,340.220 193.936,340.000 193.800 C 339.780 193.664,339.600 193.149,339.600 192.656 C 339.600 192.163,339.457 191.589,339.282 191.380 C 339.107 191.171,338.735 190.280,338.455 189.400 C 337.903 187.661,337.703 187.156,336.440 184.304 C 335.978 183.262,335.600 182.321,335.600 182.214 C 335.600 181.491,327.506 165.106,326.800 164.400 C 326.404 164.004,325.146 161.785,324.929 161.100 C 324.807 160.715,324.548 160.400,324.353 160.400 C 324.159 160.400,324.000 160.203,324.000 159.962 C 324.000 159.545,314.985 146.018,314.428 145.600 C 314.281 145.490,313.729 144.770,313.200 144.000 C 312.671 143.230,312.135 142.510,312.009 142.400 C 311.883 142.290,311.159 141.390,310.400 140.400 C 309.641 139.410,308.924 138.510,308.805 138.400 C 308.686 138.290,307.782 137.210,306.795 136.000 C 305.044 133.853,304.202 132.889,300.855 129.200 C 297.641 125.658,297.131 122.339,299.353 119.426 L 300.427 118.018 295.813 113.405 C 293.276 110.868,291.200 108.896,291.200 109.024 C 291.200 109.152,290.917 108.974,290.572 108.629 C 290.001 108.058,289.785 108.110,288.200 109.200 C 285.046 111.370,282.176 110.723,278.193 106.945 C 277.529 106.315,275.999 104.992,274.793 104.005 C 273.587 103.019,272.510 102.117,272.400 102.002 C 271.295 100.848,262.301 94.006,261.913 94.024 C 261.631 94.036,261.040 94.261,260.600 94.524 M223.017 121.650 C 226.039 123.071,226.800 124.854,226.800 130.517 L 226.800 135.164 228.300 135.421 C 238.295 137.132,247.993 143.308,247.999 147.965 C 248.005 153.597,242.160 155.725,236.682 152.085 C 233.130 149.725,229.212 148.021,227.300 148.004 C 226.907 148.001,226.800 151.903,226.800 166.195 L 226.800 184.389 228.110 184.937 C 228.831 185.238,230.586 185.895,232.010 186.398 C 251.606 193.315,259.536 209.023,253.097 228.165 C 251.267 233.606,243.316 244.400,241.139 244.400 C 240.984 244.400,240.619 244.637,240.329 244.926 C 238.787 246.460,231.700 249.546,228.300 250.164 L 226.800 250.436 226.800 255.864 C 226.800 263.315,225.513 265.542,220.993 265.917 C 216.158 266.318,214.672 264.218,214.400 256.600 L 214.200 251.000 212.400 250.889 C 205.146 250.439,197.501 247.703,190.704 243.123 C 185.915 239.896,185.911 234.271,190.696 232.004 C 193.477 230.686,193.396 230.664,200.800 234.687 C 204.905 236.917,208.084 237.934,211.400 238.078 L 214.200 238.200 214.296 215.800 C 214.348 203.480,214.258 193.215,214.096 192.989 C 213.933 192.763,211.820 191.595,209.400 190.393 C 198.916 185.184,194.635 181.212,191.630 173.900 C 190.821 171.930,190.656 170.360,190.656 164.600 C 190.656 157.893,190.746 157.314,192.400 153.400 C 193.585 150.595,193.850 150.092,195.269 147.952 C 199.125 142.135,204.998 138.113,212.661 136.041 L 214.322 135.591 214.461 130.296 C 214.621 124.199,215.070 123.134,218.093 121.667 C 220.266 120.614,220.809 120.612,223.017 121.650 M211.149 149.802 C 203.273 153.904,199.963 165.659,204.802 172.339 C 205.838 173.770,210.241 177.186,211.078 177.209 C 211.255 177.214,211.850 177.570,212.400 178.000 C 214.442 179.597,214.400 179.892,214.400 163.800 C 214.400 146.834,214.664 147.970,211.149 149.802 M226.800 217.764 L 226.800 237.615 227.900 237.357 C 231.342 236.548,237.616 231.670,239.199 228.572 C 239.529 227.928,239.889 227.310,240.000 227.200 C 240.203 226.998,240.890 225.555,241.570 223.900 C 245.941 213.265,239.361 200.883,227.900 198.173 L 226.800 197.913 226.800 217.764 M67.445 254.728 C 67.333 254.908,67.773 254.977,68.421 254.882 C 69.070 254.787,69.600 254.640,69.600 254.555 C 69.600 254.250,67.643 254.407,67.445 254.728 M238.200 299.600 C 239.059 300.480,239.852 301.200,239.962 301.200 C 240.072 301.200,239.459 300.480,238.600 299.600 C 237.741 298.720,236.948 298.000,236.838 298.000 C 236.728 298.000,237.341 298.720,238.200 299.600 M381.728 300.400 C 381.728 301.830,381.801 302.415,381.889 301.700 C 381.978 300.985,381.978 299.815,381.889 299.100 C 381.801 298.385,381.728 298.970,381.728 300.400 M245.199 319.281 C 245.089 322.516,245.140 325.022,245.312 324.850 C 245.483 324.677,245.573 322.031,245.510 318.968 L 245.397 313.400 245.199 319.281 M336.800 335.636 C 336.136 336.179,336.069 336.315,336.600 336.040 C 337.905 335.366,338.628 334.812,338.200 334.815 C 337.980 334.817,337.350 335.186,336.800 335.636 M67.290 353.451 C 67.209 359.946,67.273 360.759,67.900 361.251 C 68.517 361.735,68.542 361.726,68.110 361.170 C 67.775 360.741,67.581 358.259,67.500 353.370 L 67.380 346.200 67.290 353.451 M137.633 386.544 C 137.725 386.623,138.340 386.808,139.000 386.956 C 139.876 387.152,140.038 387.115,139.600 386.818 C 139.060 386.453,137.232 386.198,137.633 386.544 M142.500 387.476 C 142.885 387.576,143.515 387.576,143.900 387.476 C 144.285 387.375,143.970 387.293,143.200 387.293 C 142.430 387.293,142.115 387.375,142.500 387.476 M243.905 387.483 C 244.402 387.579,245.122 387.575,245.505 387.475 C 245.887 387.375,245.480 387.296,244.600 387.301 C 243.720 387.305,243.407 387.387,243.905 387.483 " stroke="none" fill="#ebb761" fill-rule="evenodd"></path><path id="path2" d="M67.500 255.028 C 67.335 255.196,67.200 259.182,67.200 263.887 C 67.200 273.355,67.075 273.939,64.663 275.779 C 63.927 276.341,62.846 276.800,62.262 276.800 L 61.200 276.800 61.200 284.400 C 61.200 291.750,61.226 292.000,62.005 292.000 C 62.835 292.000,63.970 292.551,65.301 293.600 C 67.215 295.108,67.197 294.849,67.255 320.480 C 67.326 351.501,67.587 360.805,68.400 361.226 C 68.730 361.397,69.990 361.896,71.200 362.336 C 72.410 362.776,75.200 363.797,77.400 364.605 C 79.600 365.413,82.390 366.435,83.600 366.876 C 84.810 367.317,86.160 367.823,86.600 368.000 C 87.040 368.177,88.480 368.717,89.800 369.200 C 92.629 370.235,93.945 370.764,94.895 371.247 C 95.277 371.441,95.864 371.600,96.200 371.600 C 96.536 371.600,97.123 371.759,97.505 371.953 C 97.887 372.148,98.740 372.529,99.400 372.800 C 100.060 373.071,100.913 373.452,101.295 373.647 C 101.677 373.841,102.264 374.000,102.600 374.000 C 102.936 374.000,103.523 374.159,103.905 374.353 C 104.549 374.680,105.385 375.035,107.700 375.960 C 108.195 376.157,109.230 376.536,110.000 376.800 C 111.589 377.346,112.562 377.712,114.000 378.306 C 114.550 378.533,115.540 378.908,116.200 379.138 C 116.860 379.368,119.920 380.485,123.000 381.620 C 133.800 385.601,136.364 386.332,143.000 387.318 C 146.699 387.867,239.706 388.022,243.800 387.485 C 253.320 386.238,260.966 383.551,268.742 378.723 C 270.800 377.445,272.645 376.400,272.842 376.400 C 273.039 376.400,273.200 376.220,273.200 376.000 C 273.200 375.780,273.390 375.600,273.622 375.600 C 273.854 375.600,275.104 374.880,276.400 374.000 C 277.696 373.120,278.946 372.400,279.178 372.400 C 279.410 372.400,279.600 372.250,279.600 372.068 C 279.600 371.885,280.095 371.480,280.700 371.169 C 281.305 370.857,283.510 369.504,285.600 368.162 C 295.148 362.030,299.708 359.200,300.040 359.200 C 300.238 359.200,300.400 359.020,300.400 358.800 C 300.400 358.580,300.587 358.400,300.815 358.400 C 301.044 358.400,302.837 357.320,304.800 356.000 C 306.763 354.680,308.474 353.600,308.602 353.600 C 308.729 353.600,309.051 353.417,309.317 353.193 C 309.583 352.969,312.410 351.145,315.600 349.140 C 318.790 347.134,322.342 344.887,323.494 344.147 C 324.645 343.406,325.688 342.800,325.811 342.800 C 325.933 342.800,326.420 342.440,326.892 342.000 C 327.364 341.560,327.987 341.200,328.275 341.200 C 328.564 341.200,328.800 341.020,328.800 340.800 C 328.800 340.580,328.986 340.400,329.213 340.400 C 329.441 340.400,331.466 339.172,333.713 337.671 C 335.961 336.170,338.070 334.825,338.400 334.681 C 338.730 334.537,341.222 332.975,343.938 331.210 C 346.654 329.444,348.958 328.000,349.056 328.000 C 349.155 328.000,350.570 327.100,352.200 326.000 C 353.830 324.900,355.270 324.000,355.399 324.000 C 355.528 324.000,356.020 323.640,356.492 323.200 C 356.964 322.760,357.587 322.400,357.875 322.400 C 358.164 322.400,358.400 322.220,358.400 322.000 C 358.400 321.780,358.593 321.600,358.828 321.600 C 359.063 321.600,360.008 321.084,360.928 320.452 C 363.116 318.950,374.859 311.600,375.070 311.600 C 375.160 311.600,375.620 311.240,376.092 310.800 C 376.564 310.360,377.142 309.994,377.375 309.988 C 377.609 309.981,378.369 309.216,379.064 308.288 C 382.858 303.220,382.299 295.525,377.810 291.037 C 375.751 288.977,371.450 287.299,369.339 287.731 C 368.713 287.859,367.390 288.128,366.400 288.328 C 364.123 288.789,362.986 289.189,359.400 290.793 C 358.300 291.285,357.087 291.848,356.705 292.044 C 356.323 292.240,355.738 292.400,355.405 292.400 C 355.072 292.400,354.800 292.580,354.800 292.800 C 354.800 293.020,354.547 293.200,354.238 293.200 C 353.929 293.200,352.984 293.543,352.138 293.963 C 351.292 294.382,349.970 294.993,349.200 295.320 C 347.769 295.929,345.326 297.006,342.300 298.362 C 341.365 298.781,337.990 300.228,334.800 301.577 C 331.610 302.927,328.190 304.407,327.200 304.866 C 326.210 305.325,325.040 305.840,324.600 306.009 C 324.160 306.178,322.810 306.766,321.600 307.315 C 320.390 307.864,318.680 308.625,317.800 309.005 C 316.920 309.385,315.300 310.107,314.200 310.610 C 311.692 311.757,310.195 312.415,302.000 315.977 C 294.586 319.200,293.438 319.705,290.600 320.995 C 288.668 321.873,287.276 322.483,284.100 323.842 C 283.275 324.194,281.835 324.824,280.900 325.242 C 279.965 325.659,278.390 326.360,277.400 326.800 C 275.640 327.582,274.254 328.200,270.200 330.012 C 269.100 330.504,265.950 331.881,263.200 333.073 C 260.450 334.265,257.660 335.484,257.000 335.782 C 252.733 337.708,255.036 337.600,218.331 337.600 C 180.933 337.600,182.965 337.722,180.742 335.336 C 178.874 333.330,178.766 329.528,180.522 327.575 C 182.609 325.254,180.319 325.417,213.961 325.200 L 245.000 325.000 245.120 318.600 C 245.234 312.553,244.975 310.257,243.961 308.305 C 243.762 307.923,243.600 307.338,243.600 307.005 C 243.600 306.672,243.420 306.400,243.200 306.400 C 242.980 306.400,242.800 306.040,242.800 305.600 C 242.800 305.160,242.620 304.800,242.400 304.800 C 242.180 304.800,242.000 304.519,242.000 304.175 C 242.000 303.832,240.425 301.979,238.500 300.058 C 233.418 294.987,229.795 293.336,221.600 292.354 C 216.308 291.719,207.106 290.652,201.200 289.986 C 195.568 289.352,191.420 288.876,187.500 288.413 C 176.076 287.065,172.522 286.655,166.800 286.027 C 152.141 284.419,147.729 283.184,135.800 277.345 C 130.889 274.941,129.514 274.210,123.200 270.638 C 118.512 267.986,108.269 262.981,104.800 261.646 C 102.930 260.927,101.087 260.172,100.705 259.969 C 100.323 259.766,99.659 259.600,99.229 259.600 C 98.799 259.600,98.349 259.441,98.229 259.246 C 98.108 259.051,97.513 258.793,96.905 258.671 C 95.868 258.463,94.879 258.224,90.700 257.172 C 88.855 256.708,86.176 256.231,81.800 255.589 C 78.074 255.042,67.879 254.642,67.500 255.028 " stroke="none" fill="#fbd8c8" fill-rule="evenodd"></path><path id="path3" d="M20.937 234.219 C 20.243 234.523,19.298 235.301,18.837 235.948 L 18.000 237.123 18.000 306.982 C 18.000 382.916,17.861 378.230,20.165 379.741 C 21.056 380.324,22.941 380.400,36.592 380.400 L 52.012 380.400 53.506 379.031 L 55.000 377.662 55.200 336.913 C 55.389 298.504,55.441 296.101,56.122 295.063 C 56.969 293.770,59.063 292.404,60.200 292.401 C 60.973 292.400,61.000 292.133,61.000 284.400 L 61.000 276.400 59.931 276.400 C 58.583 276.400,56.459 274.640,55.746 272.932 C 55.314 271.899,55.200 268.102,55.200 254.773 C 55.200 235.906,55.217 236.031,52.431 234.466 C 50.486 233.372,23.354 233.159,20.937 234.219 M201.900 337.100 C 210.975 337.160,225.825 337.160,234.900 337.100 C 243.975 337.040,236.550 336.991,218.400 336.991 C 200.250 336.991,192.825 337.040,201.900 337.100 " stroke="none" fill="#447494" fill-rule="evenodd"></path><path id="path4" d="M200.000 11.993 C 192.126 16.537,190.005 17.304,185.200 17.339 C 181.482 17.366,176.737 16.301,175.305 15.119 C 173.678 13.776,173.035 18.947,174.381 22.551 C 174.555 23.018,174.914 24.120,175.178 25.000 C 177.188 31.695,183.517 44.314,189.422 53.400 C 190.280 54.720,191.275 56.340,191.634 57.000 C 192.461 58.523,193.758 58.958,201.161 60.196 C 216.582 62.775,226.641 62.544,242.400 59.249 C 244.490 58.811,247.027 58.335,248.037 58.191 C 249.752 57.946,249.964 57.777,251.221 55.664 C 251.961 54.419,253.429 52.103,254.483 50.518 C 255.537 48.933,256.400 47.556,256.400 47.459 C 256.400 47.361,257.152 46.048,258.071 44.541 C 263.781 35.178,269.124 21.179,268.736 16.600 C 268.576 14.713,268.486 14.704,264.600 16.199 C 258.951 18.372,252.327 17.667,246.615 14.286 C 240.603 10.728,237.679 10.754,232.200 14.413 C 226.529 18.201,217.931 18.471,211.600 15.060 C 205.715 11.889,205.036 11.625,202.800 11.636 C 201.590 11.642,200.330 11.803,200.000 11.993 M207.200 13.405 C 218.510 19.444,224.500 19.671,233.400 14.400 C 238.305 11.495,239.989 11.398,244.400 13.765 C 253.186 18.480,258.152 19.186,264.928 16.686 C 268.155 15.495,268.236 15.571,267.842 19.416 C 267.410 23.639,260.004 41.893,258.031 43.600 C 257.817 43.785,257.346 44.573,256.238 46.600 C 255.997 47.040,255.710 47.490,255.600 47.600 C 255.490 47.710,255.130 48.263,254.800 48.828 C 250.436 56.305,249.458 57.514,247.600 57.734 C 245.816 57.946,243.658 58.352,239.800 59.205 C 228.305 61.747,215.873 62.012,203.200 59.986 C 201.770 59.757,199.790 59.470,198.800 59.346 C 197.810 59.223,196.829 58.960,196.620 58.761 C 196.411 58.563,195.565 58.400,194.739 58.400 C 193.279 58.400,190.800 55.901,190.800 54.428 C 190.800 54.193,190.665 53.999,190.500 53.997 C 190.335 53.995,190.004 53.590,189.765 53.097 C 189.526 52.604,188.376 50.670,187.209 48.800 C 184.584 44.592,178.837 33.432,177.631 30.200 C 177.139 28.880,176.570 27.487,176.368 27.105 C 176.166 26.723,176.000 26.059,176.000 25.629 C 176.000 25.199,175.840 24.748,175.644 24.627 C 175.183 24.342,174.788 22.139,174.535 18.445 C 174.306 15.097,173.906 15.272,178.200 16.838 C 181.201 17.931,186.129 18.277,189.144 17.605 C 191.419 17.097,192.382 16.677,198.189 13.658 C 202.229 11.557,203.663 11.517,207.200 13.405 M185.346 70.367 C 178.276 74.679,180.554 84.974,189.000 86.882 C 209.378 91.486,228.622 91.486,249.000 86.882 C 255.605 85.390,258.615 79.473,255.681 73.750 C 253.458 69.414,251.073 68.858,242.600 70.700 C 239.268 71.424,237.739 71.661,229.084 72.793 C 225.076 73.316,212.947 73.318,208.916 72.796 C 200.712 71.733,199.095 71.476,194.915 70.571 C 189.456 69.389,187.035 69.338,185.346 70.367 M191.600 70.402 C 192.590 70.597,194.210 70.951,195.200 71.189 C 201.603 72.726,208.846 73.399,219.000 73.399 C 229.094 73.399,236.014 72.762,242.800 71.209 C 252.555 68.976,256.000 70.830,256.000 78.314 C 256.000 84.528,253.520 85.975,238.800 88.351 C 231.635 89.507,228.258 89.745,219.000 89.745 C 209.742 89.745,206.365 89.507,199.200 88.351 C 184.513 85.981,181.999 84.517,181.951 78.309 C 181.903 71.967,185.320 69.166,191.600 70.402 M260.400 93.914 C 259.850 94.284,259.310 94.690,259.200 94.816 C 258.838 95.230,255.221 96.800,254.628 96.800 C 254.309 96.800,253.949 96.959,253.829 97.154 C 253.708 97.349,253.113 97.598,252.505 97.709 C 251.897 97.820,250.410 98.176,249.200 98.501 C 245.541 99.485,239.641 100.435,233.400 101.048 C 231.860 101.199,226.280 101.442,221.000 101.589 L 211.400 101.855 219.400 101.926 C 237.201 102.086,255.953 98.951,259.600 95.205 C 259.991 94.804,261.596 94.000,262.007 94.000 C 262.332 94.000,271.490 101.052,272.400 102.002 C 272.510 102.117,273.587 103.019,274.793 104.005 C 275.999 104.992,277.529 106.315,278.193 106.945 C 282.078 110.629,284.995 111.341,288.017 109.341 C 290.150 107.930,289.776 107.716,287.391 108.984 C 283.992 110.791,283.232 110.496,276.475 104.739 C 270.387 99.552,270.341 99.514,268.729 98.306 C 267.926 97.704,267.028 96.984,266.734 96.706 C 263.467 93.620,261.879 92.920,260.400 93.914 M174.798 96.931 C 127.760 134.954,101.461 175.781,95.909 219.400 C 95.260 224.500,95.235 244.163,95.876 245.628 C 96.235 246.450,96.793 246.761,98.663 247.178 C 100.726 247.640,108.837 250.257,111.000 251.159 C 111.440 251.343,112.250 251.684,112.800 251.917 C 114.781 252.757,124.639 257.641,126.400 258.654 C 137.224 264.885,140.424 266.645,143.459 268.034 C 148.551 270.364,148.342 270.280,151.400 271.213 C 156.371 272.729,156.644 272.800,157.523 272.800 C 157.999 272.800,159.156 272.973,160.094 273.184 C 161.032 273.395,163.600 273.759,165.800 273.992 C 168.000 274.225,171.240 274.587,173.000 274.796 C 174.760 275.005,177.910 275.370,180.000 275.608 C 182.090 275.845,185.150 276.202,186.800 276.401 C 188.450 276.600,191.510 276.956,193.600 277.192 C 195.690 277.428,198.840 277.796,200.600 278.010 C 202.360 278.224,207.940 278.856,213.000 279.415 C 228.272 281.101,231.123 281.635,235.496 283.627 C 236.428 284.052,237.271 284.400,237.369 284.400 C 237.574 284.400,241.700 286.895,242.000 287.201 C 242.110 287.313,242.910 287.934,243.778 288.582 C 252.211 294.875,257.879 307.159,257.512 318.346 C 257.385 322.217,257.704 322.599,260.124 321.476 C 260.826 321.151,262.255 320.505,263.300 320.042 C 265.822 318.924,268.204 317.867,270.400 316.891 C 274.812 314.930,275.978 314.417,278.800 313.193 C 280.450 312.477,282.930 311.376,284.310 310.746 C 285.691 310.116,286.888 309.600,286.970 309.600 C 287.053 309.600,288.713 308.871,290.660 307.981 C 292.607 307.090,294.560 306.209,295.000 306.022 C 297.444 304.983,298.802 304.395,300.600 303.597 C 301.700 303.108,303.410 302.350,304.400 301.912 C 305.390 301.474,306.740 300.873,307.400 300.577 C 308.060 300.280,313.370 297.944,319.200 295.384 C 325.030 292.824,330.043 290.529,330.341 290.282 C 331.769 289.099,337.232 279.531,338.951 275.200 C 339.344 274.210,339.911 272.860,340.211 272.200 C 349.745 251.204,349.096 212.007,338.825 188.600 C 338.631 188.160,337.992 186.540,337.403 185.000 C 336.220 181.904,335.916 181.213,333.168 175.349 C 326.464 161.046,312.447 140.550,301.473 129.006 C 298.307 125.675,297.749 123.355,299.414 120.443 C 300.611 118.348,300.462 117.828,299.180 119.628 C 297.165 122.458,297.745 125.772,300.855 129.200 C 304.202 132.889,305.044 133.853,306.795 136.000 C 307.782 137.210,308.686 138.290,308.805 138.400 C 308.924 138.510,309.641 139.410,310.400 140.400 C 311.159 141.390,311.883 142.290,312.009 142.400 C 312.135 142.510,312.671 143.230,313.200 144.000 C 313.729 144.770,314.281 145.490,314.428 145.600 C 314.985 146.018,324.000 159.545,324.000 159.962 C 324.000 160.203,324.159 160.400,324.353 160.400 C 324.548 160.400,324.807 160.715,324.929 161.100 C 325.146 161.785,326.404 164.004,326.800 164.400 C 327.506 165.106,335.600 181.491,335.600 182.214 C 335.600 182.321,335.978 183.262,336.440 184.304 C 337.703 187.156,337.903 187.661,338.455 189.400 C 338.735 190.280,339.107 191.171,339.282 191.380 C 339.457 191.589,339.600 192.163,339.600 192.656 C 339.600 193.149,339.780 193.664,340.000 193.800 C 340.220 193.936,340.400 194.476,340.400 195.000 C 340.400 195.524,340.559 196.051,340.754 196.171 C 340.949 196.292,341.204 196.887,341.321 197.495 C 341.438 198.103,341.741 199.320,341.994 200.200 C 347.213 218.375,348.087 239.032,344.378 256.600 C 344.146 257.700,343.856 259.187,343.734 259.904 C 343.612 260.621,343.351 261.306,343.156 261.427 C 342.960 261.548,342.800 262.089,342.800 262.629 C 342.800 263.169,342.638 263.923,342.439 264.305 C 342.240 264.687,341.849 265.810,341.569 266.800 C 341.290 267.790,340.912 268.771,340.730 268.980 C 340.549 269.189,340.400 269.667,340.400 270.042 C 340.400 270.775,340.290 271.018,336.265 279.200 C 331.448 288.993,330.715 289.815,324.400 292.517 C 323.630 292.846,322.145 293.495,321.100 293.958 C 320.055 294.421,318.435 295.139,317.500 295.553 C 316.565 295.968,313.010 297.519,309.600 299.000 C 306.190 300.481,302.590 302.053,301.600 302.492 C 300.610 302.932,298.990 303.648,298.000 304.084 C 297.010 304.520,295.677 305.129,295.039 305.438 C 294.400 305.747,293.635 306.000,293.339 306.000 C 293.042 306.000,292.800 306.180,292.800 306.400 C 292.800 306.620,292.528 306.800,292.195 306.800 C 291.862 306.800,291.277 306.960,290.895 307.156 C 290.513 307.352,289.390 307.873,288.400 308.313 C 287.410 308.754,285.610 309.567,284.400 310.119 C 282.021 311.206,278.915 312.581,277.000 313.394 C 276.340 313.675,274.760 314.376,273.489 314.952 C 272.218 315.528,271.098 316.000,271.001 316.000 C 270.903 316.000,269.873 316.430,268.712 316.955 C 267.550 317.481,265.700 318.311,264.600 318.800 C 263.500 319.289,261.650 320.119,260.488 320.645 C 259.327 321.170,258.302 321.600,258.210 321.600 C 258.119 321.600,257.971 319.305,257.882 316.500 C 257.793 313.695,257.594 310.860,257.441 310.200 C 256.642 306.761,255.999 304.767,255.153 303.105 C 254.959 302.723,254.800 302.234,254.800 302.018 C 254.800 301.801,253.879 300.065,252.753 298.158 C 248.406 290.799,241.061 284.825,233.000 282.093 C 228.808 280.672,227.968 280.538,212.400 278.800 C 209.110 278.433,205.835 278.053,198.500 277.187 C 195.127 276.789,192.733 276.513,185.000 275.631 C 183.020 275.405,179.825 275.036,177.900 274.810 C 175.975 274.585,172.825 274.216,170.900 273.992 C 157.629 272.445,155.793 272.111,150.200 270.225 C 146.990 269.143,138.968 265.371,135.600 263.361 C 134.610 262.770,133.215 261.952,132.500 261.543 C 131.785 261.135,130.615 260.465,129.900 260.057 C 129.185 259.648,127.790 258.841,126.800 258.264 C 120.037 254.322,108.380 249.364,100.800 247.205 C 95.724 245.759,96.169 246.722,95.751 236.295 C 95.198 222.496,98.854 200.779,103.578 189.800 C 103.767 189.360,104.320 187.920,104.807 186.600 C 107.348 179.703,112.050 170.040,116.551 162.460 C 120.765 155.363,123.540 151.088,124.077 150.867 C 124.255 150.793,124.400 150.579,124.400 150.390 C 124.400 149.868,131.268 140.781,135.576 135.604 C 145.799 123.319,159.133 110.331,173.085 99.069 L 177.955 95.137 180.477 96.335 C 186.137 99.021,200.169 101.676,208.000 101.542 L 211.000 101.491 207.200 101.167 C 198.136 100.393,190.725 99.246,186.800 98.008 C 186.250 97.835,184.990 97.455,184.000 97.165 C 183.010 96.875,181.660 96.353,181.000 96.006 C 177.817 94.332,178.058 94.296,174.798 96.931 M218.093 121.667 C 215.070 123.134,214.621 124.199,214.461 130.296 L 214.322 135.591 212.661 136.041 C 204.998 138.113,199.125 142.135,195.269 147.952 C 193.850 150.092,193.585 150.595,192.400 153.400 C 190.746 157.314,190.656 157.893,190.656 164.600 C 190.656 170.360,190.821 171.930,191.630 173.900 C 194.635 181.212,198.916 185.184,209.400 190.393 C 211.820 191.595,213.933 192.763,214.096 192.989 C 214.258 193.215,214.348 203.480,214.296 215.800 L 214.200 238.200 211.400 238.078 C 208.084 237.934,204.905 236.917,200.800 234.687 C 193.396 230.664,193.477 230.686,190.696 232.004 C 185.911 234.271,185.915 239.896,190.704 243.123 C 197.501 247.703,205.146 250.439,212.400 250.889 L 214.200 251.000 214.400 256.600 C 214.672 264.218,216.158 266.318,220.993 265.917 C 225.513 265.542,226.800 263.315,226.800 255.864 L 226.800 250.436 228.300 250.164 C 231.700 249.546,238.787 246.460,240.329 244.926 C 240.619 244.637,240.984 244.400,241.139 244.400 C 243.316 244.400,251.267 233.606,253.097 228.165 C 259.536 209.023,251.606 193.315,232.010 186.398 C 230.586 185.895,228.831 185.238,228.110 184.937 L 226.800 184.389 226.800 166.195 C 226.800 151.903,226.907 148.001,227.300 148.004 C 229.212 148.021,233.130 149.725,236.682 152.085 C 242.160 155.725,248.005 153.597,247.999 147.965 C 247.993 143.308,238.295 137.132,228.300 135.421 L 226.800 135.164 226.800 130.517 C 226.800 122.749,223.267 119.158,218.093 121.667 M223.614 122.491 C 225.589 123.700,226.187 125.484,226.400 130.800 C 226.599 135.777,226.605 135.801,227.600 135.909 C 236.439 136.877,247.667 143.721,247.591 148.096 C 247.506 152.973,242.147 154.990,237.547 151.876 C 234.022 149.491,230.189 147.760,227.931 147.533 L 226.600 147.400 226.600 166.142 L 226.600 184.884 229.200 185.879 C 230.630 186.426,232.205 187.037,232.700 187.237 C 233.195 187.436,234.005 187.757,234.500 187.949 C 264.215 199.483,260.076 242.045,228.500 249.646 L 226.400 250.151 226.400 255.227 C 226.400 262.675,224.765 265.600,220.600 265.600 C 216.412 265.600,215.096 263.419,214.809 256.000 L 214.600 250.600 211.800 250.289 C 199.637 248.940,187.739 242.721,187.629 237.654 C 187.534 233.268,192.571 230.515,196.400 232.861 C 200.606 235.437,203.395 236.820,206.600 237.917 C 208.473 238.559,213.867 239.329,214.358 239.026 C 214.672 238.832,214.800 232.072,214.800 215.629 L 214.800 192.505 210.203 190.244 C 198.320 184.399,193.651 179.602,191.357 170.880 C 190.696 168.365,190.621 161.374,191.232 159.046 C 192.307 154.946,192.624 154.043,193.852 151.600 C 197.445 144.446,203.455 139.349,210.800 137.224 C 211.790 136.937,213.050 136.575,213.600 136.419 C 214.586 136.140,214.603 136.061,214.810 130.968 C 215.070 124.556,215.617 123.199,218.408 122.025 C 219.595 121.526,222.455 121.782,223.614 122.491 M211.400 149.143 C 202.650 153.310,198.978 167.132,204.920 173.540 C 206.432 175.171,213.497 179.600,214.587 179.600 C 214.704 179.600,214.800 172.490,214.800 163.800 C 214.800 151.426,214.692 148.000,214.300 148.000 C 214.025 148.000,212.720 148.515,211.400 149.143 M214.400 163.800 C 214.400 179.892,214.442 179.597,212.400 178.000 C 211.850 177.570,211.255 177.214,211.078 177.209 C 210.241 177.186,205.838 173.770,204.802 172.339 C 199.963 165.659,203.273 153.904,211.149 149.802 C 214.664 147.970,214.400 146.834,214.400 163.800 M226.630 197.503 C 226.198 197.935,226.374 237.937,226.810 238.206 C 227.035 238.345,228.700 237.734,230.510 236.847 C 245.449 229.526,247.979 208.323,234.828 200.654 C 231.523 198.728,227.104 197.029,226.630 197.503 M232.200 199.956 C 241.294 204.285,245.361 214.676,241.570 223.900 C 240.890 225.555,240.203 226.998,240.000 227.200 C 239.889 227.310,239.529 227.928,239.199 228.572 C 237.616 231.670,231.342 236.548,227.900 237.357 L 226.800 237.615 226.800 217.764 L 226.800 197.913 227.900 198.173 C 228.505 198.316,230.440 199.119,232.200 199.956 M67.022 254.444 C 66.915 254.750,66.776 258.960,66.713 263.800 C 66.576 274.451,66.376 274.941,61.500 276.545 C 60.866 276.753,60.800 277.490,60.800 284.341 L 60.800 291.906 62.961 292.963 C 66.916 294.899,66.572 291.690,66.800 328.757 C 66.974 357.143,67.077 361.355,67.600 361.642 C 67.930 361.823,71.440 363.160,75.400 364.613 C 85.244 368.225,86.874 368.828,87.800 369.199 C 88.240 369.375,89.230 369.736,90.000 370.000 C 91.600 370.549,92.577 370.917,94.000 371.507 C 94.550 371.735,96.080 372.317,97.400 372.800 C 98.720 373.283,100.160 373.823,100.600 374.000 C 101.040 374.177,102.480 374.717,103.800 375.200 C 105.120 375.683,106.560 376.223,107.000 376.400 C 107.909 376.766,109.326 377.292,119.400 381.004 C 123.360 382.463,127.320 383.931,128.200 384.266 C 130.889 385.290,134.778 386.472,137.600 387.123 C 143.189 388.413,145.046 388.451,195.200 388.286 C 228.923 388.175,246.122 387.979,247.600 387.689 C 249.764 387.263,251.634 386.820,254.400 386.077 C 258.905 384.868,266.867 380.978,273.080 376.950 C 275.016 375.695,278.354 373.528,280.497 372.134 C 282.640 370.740,284.486 369.600,284.600 369.600 C 284.714 369.600,286.560 368.451,288.703 367.046 C 294.888 362.992,302.918 357.913,303.897 357.437 C 304.390 357.197,304.795 356.865,304.797 356.700 C 304.799 356.535,304.974 356.400,305.186 356.400 C 305.399 356.400,307.334 355.259,309.486 353.865 C 315.281 350.111,323.876 344.658,324.728 344.195 C 325.137 343.972,327.256 342.638,329.436 341.230 C 334.956 337.665,340.805 333.942,347.600 329.669 C 350.790 327.663,353.617 325.837,353.883 325.611 C 354.149 325.385,354.472 325.200,354.601 325.200 C 354.730 325.200,356.170 324.300,357.800 323.200 C 359.430 322.100,360.870 321.200,361.000 321.200 C 361.130 321.200,362.533 320.328,364.118 319.262 C 365.703 318.196,369.513 315.749,372.585 313.825 C 379.332 309.599,382.064 306.563,381.968 303.400 C 381.952 302.888,381.753 303.117,381.414 304.038 C 379.604 308.954,379.892 308.711,364.200 318.612 C 361.120 320.556,356.897 323.238,354.816 324.573 C 352.735 325.908,350.704 327.180,350.304 327.400 C 349.904 327.620,347.917 328.866,345.888 330.170 C 343.860 331.473,339.230 334.421,335.600 336.721 C 331.970 339.020,327.246 342.049,325.103 343.451 C 322.960 344.853,321.121 346.000,321.017 346.000 C 320.913 346.000,318.976 347.195,316.714 348.656 C 314.451 350.117,311.970 351.711,311.200 352.200 C 310.430 352.689,307.949 354.283,305.686 355.744 C 303.424 357.205,301.487 358.400,301.383 358.400 C 301.279 358.400,299.440 359.547,297.297 360.949 C 295.154 362.350,290.610 365.252,287.200 367.397 C 283.790 369.542,279.380 372.327,277.400 373.586 C 266.904 380.259,267.081 380.154,263.000 382.145 C 251.124 387.940,253.387 387.744,196.200 387.911 C 138.243 388.081,139.810 388.183,127.200 383.404 C 126.210 383.029,124.410 382.362,123.200 381.922 C 121.990 381.482,120.640 380.977,120.200 380.800 C 119.760 380.623,118.320 380.083,117.000 379.600 C 115.680 379.117,114.240 378.578,113.800 378.401 C 113.360 378.225,112.370 377.864,111.600 377.600 C 110.830 377.336,109.795 376.957,109.300 376.760 C 108.805 376.562,107.995 376.238,107.500 376.039 C 107.005 375.840,105.610 375.318,104.400 374.879 C 103.190 374.439,100.760 373.533,99.000 372.865 C 97.240 372.197,92.560 370.457,88.600 368.998 C 77.390 364.868,77.049 364.742,76.200 364.401 C 75.760 364.225,74.770 363.864,74.000 363.600 C 71.762 362.832,69.268 361.838,68.000 361.210 C 67.477 360.951,67.374 356.785,67.200 328.556 C 67.055 305.092,66.873 295.980,66.537 295.400 C 65.786 294.103,64.305 292.933,62.700 292.367 L 61.200 291.839 61.200 284.320 C 61.200 277.666,61.274 276.800,61.846 276.800 C 62.997 276.800,65.452 275.157,66.236 273.862 C 66.909 272.750,67.024 271.532,67.200 263.600 L 67.400 254.600 72.200 254.710 C 86.699 255.043,100.550 258.755,115.159 266.225 C 120.639 269.028,121.995 269.762,127.300 272.804 C 137.415 278.604,152.167 284.525,156.093 284.362 C 156.592 284.342,155.380 283.913,153.400 283.410 C 149.338 282.377,144.308 280.715,141.611 279.514 C 138.822 278.271,131.188 274.481,129.400 273.450 C 124.807 270.804,116.551 266.360,113.200 264.728 C 109.295 262.828,107.625 262.085,103.400 260.368 C 93.518 256.353,67.822 252.169,67.022 254.444 M158.000 284.800 C 158.550 284.976,159.900 285.116,161.000 285.110 L 163.000 285.100 161.200 284.780 C 158.678 284.331,156.577 284.344,158.000 284.800 M164.200 285.600 C 164.860 285.768,166.480 285.903,167.800 285.899 L 170.200 285.893 168.200 285.582 C 165.418 285.148,162.478 285.162,164.200 285.600 M171.400 286.400 C 172.060 286.568,173.590 286.703,174.800 286.699 L 177.000 286.693 175.000 286.382 C 173.900 286.210,172.370 286.076,171.600 286.082 L 170.200 286.095 171.400 286.400 M177.238 286.952 C 177.368 287.093,179.258 287.399,181.438 287.631 C 188.366 288.368,191.699 288.737,195.600 289.198 C 202.388 289.999,205.734 290.388,209.400 290.800 C 211.380 291.023,214.440 291.372,216.200 291.578 C 217.960 291.783,220.480 292.062,221.800 292.198 C 231.889 293.238,239.505 298.303,243.324 306.512 C 245.155 310.447,245.400 311.875,245.400 318.600 L 245.400 325.000 214.400 325.200 C 184.891 325.390,183.347 325.436,182.290 326.153 C 180.070 327.658,179.300 329.524,179.528 332.850 C 179.621 334.210,181.824 336.554,183.560 337.141 C 184.541 337.472,194.300 337.600,218.611 337.600 C 255.322 337.600,252.181 337.781,257.512 335.359 C 258.673 334.832,259.704 334.400,259.802 334.400 C 259.900 334.400,261.199 333.839,262.690 333.154 C 264.180 332.469,267.470 331.009,270.000 329.910 C 272.530 328.810,275.320 327.591,276.200 327.201 C 277.080 326.811,278.700 326.092,279.800 325.603 C 280.900 325.115,282.430 324.446,283.200 324.116 C 285.098 323.304,287.283 322.320,290.475 320.840 C 291.946 320.158,293.246 319.600,293.363 319.600 C 293.480 319.600,294.527 319.170,295.688 318.645 C 296.850 318.119,298.610 317.332,299.600 316.894 C 300.590 316.457,303.740 315.063,306.600 313.796 C 309.460 312.529,312.565 311.157,313.500 310.747 C 314.435 310.336,316.010 309.640,317.000 309.200 C 321.208 307.330,322.678 306.682,324.000 306.116 C 324.770 305.787,326.120 305.194,327.000 304.800 C 327.880 304.406,329.230 303.813,330.000 303.484 C 330.770 303.154,332.210 302.526,333.200 302.088 C 334.190 301.651,338.600 299.720,343.000 297.797 C 353.472 293.222,355.906 292.148,360.312 290.155 C 361.473 289.630,362.601 289.200,362.817 289.200 C 363.034 289.200,363.523 289.041,363.905 288.847 C 368.291 286.620,374.031 287.430,377.741 290.800 C 379.330 292.243,380.636 294.356,381.450 296.800 C 381.749 297.699,381.930 297.914,381.954 297.400 C 382.179 292.666,375.885 287.400,370.000 287.400 C 366.150 287.400,364.081 287.940,358.700 290.349 C 354.661 292.158,353.352 292.737,352.000 293.316 C 350.704 293.871,349.665 294.329,345.100 296.354 C 340.965 298.189,339.346 298.901,331.800 302.197 C 324.200 305.518,322.838 306.116,318.600 308.000 C 317.610 308.440,316.035 309.140,315.100 309.554 C 314.165 309.969,312.590 310.669,311.600 311.109 C 307.298 313.021,305.683 313.732,296.400 317.800 C 287.117 321.868,285.502 322.579,281.200 324.491 C 272.577 328.324,272.457 328.376,268.300 330.157 C 267.585 330.463,265.920 331.203,264.600 331.801 C 263.280 332.399,260.130 333.813,257.600 334.944 L 253.000 337.000 218.329 337.000 C 179.577 337.000,182.857 337.236,180.658 334.291 C 178.989 332.055,180.155 327.587,182.711 326.422 C 183.335 326.138,193.664 325.998,214.319 325.994 C 231.193 325.991,245.246 325.832,245.546 325.642 C 246.371 325.119,245.944 311.683,245.023 309.200 C 241.006 298.370,233.682 293.133,220.400 291.594 C 218.310 291.352,215.070 290.978,213.200 290.762 C 211.330 290.546,208.360 290.202,206.600 289.997 C 204.840 289.791,201.780 289.441,199.800 289.218 C 194.106 288.576,189.247 288.007,186.000 287.601 C 181.011 286.979,176.986 286.681,177.238 286.952 M382.120 300.400 C 382.120 301.610,382.195 302.105,382.287 301.500 C 382.378 300.895,382.378 299.905,382.287 299.300 C 382.195 298.695,382.120 299.190,382.120 300.400 " stroke="none" fill="#8e7349" fill-rule="evenodd"></path></g></svg>